<?xml version="1.0" encoding="utf-8"?>
<svg version="1.1" xmlns="http://www.w3.org/2000/svg" xmlns:xlink="http://www.w3.org/1999/xlink" x="0px" y="0px"
	 viewBox="0 0 750 500" style="enable-background:new 0 0 750 500;" xml:space="preserve">
<g id="Background_complete">
	<g>
		<g>
			<g>
				<g>
					<g>
						<g>
							<path style="fill:#E0E0E0;" d="M673.734,339.783H492.988c-3.232,0-5.862-2.63-5.862-5.862V70.647
								c0-3.232,2.63-5.862,5.862-5.862h180.746c3.232,0,5.862,2.629,5.862,5.862v263.273
								C679.596,337.153,676.966,339.783,673.734,339.783z M492.988,65.035c-3.095,0-5.612,2.518-5.612,5.612v263.273
								c0,3.095,2.518,5.612,5.612,5.612h180.746c3.095,0,5.612-2.518,5.612-5.612V70.647c0-3.094-2.518-5.612-5.612-5.612H492.988z
								"/>
						</g>
					</g>
					<g>
						<g>
							<path style="fill:#E0E0E0;" d="M465.306,339.783H284.56c-3.232,0-5.862-2.63-5.862-5.862V70.647
								c0-3.232,2.629-5.862,5.862-5.862h180.747c3.232,0,5.862,2.629,5.862,5.862v263.273
								C471.168,337.153,468.538,339.783,465.306,339.783z M284.56,65.035c-3.094,0-5.612,2.518-5.612,5.612v263.273
								c0,3.095,2.518,5.612,5.612,5.612h180.747c3.095,0,5.612-2.518,5.612-5.612V70.647c0-3.094-2.518-5.612-5.612-5.612H284.56z"
								/>
						</g>
					</g>
				</g>
				<g>
					<g>
						<g>
							<path style="fill:#E0E0E0;" d="M257.012,339.783H76.266c-3.232,0-5.862-2.63-5.862-5.862V70.647
								c0-3.232,2.629-5.862,5.862-5.862h180.746c3.232,0,5.862,2.629,5.862,5.862v263.273
								C262.875,337.153,260.245,339.783,257.012,339.783z M76.266,65.035c-3.094,0-5.612,2.518-5.612,5.612v263.273
								c0,3.095,2.518,5.612,5.612,5.612h180.746c3.095,0,5.612-2.518,5.612-5.612V70.647c0-3.094-2.518-5.612-5.612-5.612H76.266z"
								/>
						</g>
					</g>
				</g>
			</g>
			<g>
				<g>
					<rect y="400.852" style="fill:#E0E0E0;" width="750" height="0.12"/>
				</g>
			</g>
		</g>
		<g>
			<rect x="653.626" y="430.228" style="fill:#EBEBEB;" width="55.729" height="0.421"/>
			<rect x="495.044" y="434.794" style="fill:#EBEBEB;" width="14.627" height="0.421"/>
			<rect x="40.645" y="417.431" style="fill:#EBEBEB;" width="72.674" height="0.421"/>
			<rect x="128.299" y="417.431" style="fill:#EBEBEB;" width="10.656" height="0.421"/>
			<rect x="173.586" y="424.535" style="fill:#EBEBEB;" width="157.613" height="0.421"/>
		</g>
	</g>
	<g>
		<g>
			<g>
				<g>
					<path style="fill:#E0E0E0;" d="M377.702,111.107c10.498,6.429,22.188,6.787,32.529,0.109
						c10.341-6.678,17.839-18.428,16.297-30.641c-0.789-6.248-3.533-12.403-8.35-16.459c-6.849-5.767-17.105-6.426-25.354-2.948
						c-8.249,3.479-14.35,8.856-18.485,16.797c-4.096,7.866-6.566,19.455,0.338,30.136c0,0-7.125,2.808-6.342,4.707
						c0.782,1.899,4.88,0.294,4.88,0.294s-0.049,6.517,1.815,4.901C377.783,115.616,377.702,111.107,377.702,111.107z"/>
				</g>
				<g style="opacity:0.3;">
					<path style="fill:#FFFFFF;" d="M382.404,79.132c-1.474-0.82-2.947-1.64-4.421-2.461c2.592-5.054,6.736-9.297,11.727-12.008
						c4.991-2.71,10.807-3.876,16.457-3.299c0,0-8.943,2.875-14.332,7.232C385.993,73.319,382.404,79.132,382.404,79.132z"/>
				</g>
			</g>
		</g>
	</g>
	<g>
		<g>
			
				<ellipse transform="matrix(0.7071 -0.7071 0.7071 0.7071 94.5967 358.4476)" style="fill:#E6E6E6;" cx="479.983" cy="65.035" rx="23.056" ry="23.056"/>
			<circle style="fill:#F5F5F5;" cx="479.983" cy="65.069" r="20.852"/>
			<g>
				<path style="fill:#E0E0E0;" d="M480.837,85.135c-11.516,0-20.852-9.336-20.852-20.853c0-5.867,2.424-11.167,6.324-14.956
					c-4.397,3.823-7.178,9.458-7.178,15.742c0,11.516,9.336,20.852,20.852,20.852c5.65,0,10.773-2.248,14.529-5.896
					C490.85,83.208,486.069,85.135,480.837,85.135z"/>
			</g>
			<g>
				<g>
					
						<rect x="485.05" y="63.18" transform="matrix(0.4559 -0.8901 0.8901 0.4559 201.3842 470.2843)" style="fill:#E0E0E0;" width="0.522" height="14.524"/>
				</g>
				<g>
					
						<rect x="477.31" y="62.098" transform="matrix(0.794 -0.608 0.608 0.794 62.0189 307.7174)" style="fill:#E0E0E0;" width="15.38" height="0.522"/>
				</g>
				<polygon style="fill:#E0E0E0;" points="478.222,67.522 479.692,67.564 479.602,52.634 478.154,52.677 				"/>
			</g>
		</g>
	</g>
	<g>
		<path style="fill:#F0F0F0;" d="M379.706,251.318c0,0-2.774,55.627-14.754,65.205h12.813c0,0,11.426-18.951,12.278-65.205H379.706z
			"/>
		<path style="fill:#EBEBEB;" d="M327.333,311.913h57.464c2.481,0,4.493,2.011,4.493,4.493v4.726h-66.45v-4.726
			C322.841,313.924,324.852,311.913,327.333,311.913z"/>
		<path style="fill:#F0F0F0;" d="M386.78,384.962l-25.616-2.233v-40.323h-9.006v40.314l-25.708,2.242
			c-2.265,0.223-3.991,2.127-3.991,4.403v3.412h33.322h1.669h33.322v-3.412C390.772,387.089,389.045,385.184,386.78,384.962z"/>
		<path style="fill:#E0E0E0;enable-background:new    ;" d="M330.752,397.009c0,3.252-2.636,5.888-5.888,5.888
			c-3.252,0-5.888-2.636-5.888-5.888c0-3.252,2.636-5.888,5.888-5.888C328.116,391.121,330.752,393.757,330.752,397.009z"/>
		<path style="fill:#E0E0E0;enable-background:new    ;" d="M382.479,397.009c0,3.252,2.636,5.888,5.888,5.888
			c3.252,0,5.888-2.636,5.888-5.888c0-3.252-2.636-5.888-5.888-5.888C385.115,391.121,382.479,393.757,382.479,397.009z"/>
		<path style="fill:#F0F0F0;" d="M359.201,346.504h-4.679c-2.051,0-3.714-1.663-3.714-3.714v-24.921h12.107v24.921
			C362.915,344.841,361.252,346.504,359.201,346.504z"/>
		<g>
			<path style="fill:#F0F0F0;" d="M322.119,316.522h67.892c0.998,0,1.807,0.809,1.807,1.807v0.995c0,0.998-0.809,1.807-1.807,1.807
				H322.12c-0.998,0-1.807-0.809-1.807-1.807v-0.995C320.312,317.332,321.121,316.522,322.119,316.522z"/>
		</g>
		<path style="fill:#EBEBEB;" d="M387.678,306.757l-21.104,0c-6.182,0-10.647-5.555-9.973-12.408l9.595-53.626
			c0.674-6.853,6.233-12.408,12.415-12.408h21.104c6.182,0,10.647,5.555,9.973,12.408l-9.595,53.626
			C399.419,301.201,393.861,306.757,387.678,306.757z"/>
		<path style="fill:#E0E0E0;enable-background:new    ;" d="M399.716,228.316h-4.032c6.182,0,10.647,5.555,9.973,12.408
			l-9.595,53.626c-0.674,6.852-6.233,12.408-12.415,12.408h4.031c6.182,0,11.741-5.555,12.416-12.408l9.595-53.626
			C410.363,233.871,405.899,228.316,399.716,228.316z"/>
		<g>
			<g style="enable-background:new    ;">
				<path style="fill:#E0E0E0;" d="M399.354,228.805h-16.39c-4.811,0-8.712-3.9-8.712-8.712v-1.987c0-4.811,3.9-8.712,8.712-8.712
					h16.39c4.811,0,8.712,3.9,8.712,8.712v1.987C408.066,224.905,404.165,228.805,399.354,228.805z"/>
			</g>
			<path style="fill:#EBEBEB;" d="M395.617,228.805h-16.39c-4.811,0-8.712-3.9-8.712-8.712v-1.987c0-4.811,3.9-8.712,8.712-8.712
				h16.39c4.811,0,8.712,3.9,8.712,8.712v1.987C404.328,224.905,400.428,228.805,395.617,228.805z"/>
		</g>
	</g>
	<g>
		<g>
			<polygon style="fill:#E6E6E6;" points="276.715,269.114 241.813,269.114 241.813,271.075 279.946,271.075 			"/>
			<polygon style="fill:#E6E6E6;" points="304.955,261.275 233.784,261.275 228.698,205.779 299.861,205.779 			"/>
			<polygon style="fill:#E6E6E6;" points="251.57,269.731 266.116,269.731 274.867,244.031 260.33,244.031 			"/>
		</g>
		<g>
			<polygon style="fill:#E6E6E6;" points="207.253,400.973 226.144,276.768 233.962,276.768 211.184,400.973 			"/>
			<polygon style="fill:#E6E6E6;" points="465.182,398.76 446.291,276.768 438.474,276.768 461.251,398.76 			"/>
			<g>
				<rect x="205.3" y="270.666" style="fill:#E0E0E0;" width="269.214" height="6.102"/>
			</g>
		</g>
		<rect x="296.377" y="268.328" style="fill:#E6E6E6;" width="50.699" height="2.338"/>
	</g>
	<g>
		<rect x="542.969" y="64.13" style="fill:#F5F5F5;" width="153.783" height="327.863"/>
		<g>
			<g>
				<path style="fill:#E0E0E0;" d="M591.801,64.469c0,42.679,0,85.358,0,128.037c0,42.461,0,84.923,0,127.384
					c0,23.952,0,47.905,0,71.858c0,0.482,0.75,0.483,0.75,0c0-42.679,0-85.358,0-128.037c0-42.461,0-84.923,0-127.384
					c0-23.952,0-47.905,0-71.857C592.551,63.986,591.801,63.986,591.801,64.469L591.801,64.469z"/>
			</g>
		</g>
		<g>
			<g>
				<path style="fill:#E0E0E0;" d="M646.851,64.657c0,42.799,0,85.597,0,128.396c0,42.58,0,85.16,0,127.74
					c0,24.02,0,48.039,0,72.059c0,0.483,0.75,0.483,0.75,0c0-42.798,0-85.597,0-128.396c0-42.58,0-85.16,0-127.74
					c0-24.02,0-48.039,0-72.059C647.601,64.174,646.851,64.174,646.851,64.657L646.851,64.657z"/>
			</g>
		</g>
		<g>
			<g>
				<path style="fill:#E0E0E0;" d="M543.697,106.505c19.716,0,39.432,0,59.148,0c19.716,0,39.432,0,59.148,0
					c11.148,0,22.295,0,33.443,0c0.483,0,0.483-0.75,0-0.75c-19.716,0-39.432,0-59.148,0c-19.716,0-39.432,0-59.148,0
					c-11.148,0-22.295,0-33.443,0C543.214,105.755,543.213,106.505,543.697,106.505L543.697,106.505z"/>
			</g>
		</g>
		<g>
			<g>
				<path style="fill:#E0E0E0;" d="M543.697,147.372c19.716,0,39.432,0,59.148,0c19.716,0,39.432,0,59.148,0
					c11.148,0,22.295,0,33.443,0c0.483,0,0.483-0.75,0-0.75c-19.716,0-39.432,0-59.148,0c-19.716,0-39.432,0-59.148,0
					c-11.148,0-22.295,0-33.443,0C543.214,146.622,543.213,147.372,543.697,147.372L543.697,147.372z"/>
			</g>
		</g>
		<g>
			<g>
				<path style="fill:#E0E0E0;" d="M543.697,188.24c19.716,0,39.432,0,59.148,0c19.716,0,39.432,0,59.148,0
					c11.148,0,22.295,0,33.443,0c0.483,0,0.483-0.75,0-0.75c-19.716,0-39.432,0-59.148,0c-19.716,0-39.432,0-59.148,0
					c-11.148,0-22.295,0-33.443,0C543.214,187.49,543.213,188.24,543.697,188.24L543.697,188.24z"/>
			</g>
		</g>
		<g>
			<g>
				<path style="fill:#E0E0E0;" d="M543.697,229.108c19.716,0,39.432,0,59.148,0c19.716,0,39.432,0,59.148,0
					c11.148,0,22.295,0,33.443,0c0.483,0,0.483-0.75,0-0.75c-19.716,0-39.432,0-59.148,0c-19.716,0-39.432,0-59.148,0
					c-11.148,0-22.295,0-33.443,0C543.214,228.358,543.213,229.108,543.697,229.108L543.697,229.108z"/>
			</g>
		</g>
		<g>
			<g>
				<path style="fill:#E0E0E0;" d="M543.697,269.975c19.716,0,39.432,0,59.148,0c19.716,0,39.432,0,59.148,0
					c11.148,0,22.295,0,33.443,0c0.483,0,0.483-0.75,0-0.75c-19.716,0-39.432,0-59.148,0c-19.716,0-39.432,0-59.148,0
					c-11.148,0-22.295,0-33.443,0C543.214,269.225,543.213,269.975,543.697,269.975L543.697,269.975z"/>
			</g>
		</g>
		<g>
			<g>
				<path style="fill:#E0E0E0;" d="M543.697,310.843c19.716,0,39.432,0,59.148,0c19.716,0,39.432,0,59.148,0
					c11.148,0,22.295,0,33.443,0c0.483,0,0.483-0.75,0-0.75c-19.716,0-39.432,0-59.148,0c-19.716,0-39.432,0-59.148,0
					c-11.148,0-22.295,0-33.443,0C543.214,310.093,543.213,310.843,543.697,310.843L543.697,310.843z"/>
			</g>
		</g>
		<g>
			<g>
				<path style="fill:#E0E0E0;" d="M543.697,351.71c19.716,0,39.432,0,59.148,0c19.716,0,39.432,0,59.148,0
					c11.148,0,22.295,0,33.443,0c0.483,0,0.483-0.75,0-0.75c-19.716,0-39.432,0-59.148,0c-19.716,0-39.432,0-59.148,0
					c-11.148,0-22.295,0-33.443,0C543.214,350.96,543.213,351.71,543.697,351.71L543.697,351.71z"/>
			</g>
		</g>
		<path style="fill:#E0E0E0;" d="M550.448,391.993l-2.89-323.164c0,0,149.194,0.557,149.194-0.04c0-2.992,0-4.659,0-4.659H542.969
			v327.863H550.448z"/>
		<path style="opacity:0.3;fill:#FFFFFF;enable-background:new    ;" d="M696.753,64.13c0,0-57.126,58.542-65.664,58.897
			c-8.537,0.355-11.224-16.779-27.821-5.43c-16.596,11.349-60.299,60.563-60.299,60.563v26.455c0,0,60.03-74.676,69.807-71.383
			c9.776,3.293,10.742,21.133,24.611,11.018c13.869-10.115,59.366-49.544,59.366-49.544V64.13z"/>
		<path style="opacity:0.3;fill:#FFFFFF;enable-background:new    ;" d="M542.969,282.353c0,0,52.948-61.172,62.677-52.422
			c9.729,8.751,12.232,51.584,33.944,40.921c21.712-10.664,56.847-36.997,56.847-36.997v28.778c0,0-47.168,32.532-67.703,24.901
			c-20.535-7.631-21.589-36.32-28.596-32.131c-7.008,4.188-57.169,67.051-57.169,67.051V282.353z"/>
	</g>
	<g>
		<g>
			<path style="fill:#EBEBEB;" d="M663.487,273.181c-9.654,4.105-15.685,12.04-16.165,22.52
				c-0.481,10.48,3.964,21.495,13.202,26.466c4.726,2.543,10.355,3.683,15.553,2.346c7.39-1.9,12.92-8.691,14.587-16.137
				c1.666-7.446,0.952-14.339-2.513-21.137c-3.433-6.734-10.253-14.179-21.081-14.672c0,0,1.576-6.333-0.129-6.73
				c-1.705-0.397-2.618,3.241-2.618,3.241s-4.498-3.258-4.299-1.164C660.318,271.007,663.487,273.181,663.487,273.181z"/>
		</g>
		<g style="opacity:0.3;">
			<path style="fill:#FFFFFF;" d="M683.352,292.26c1.298-0.617,2.596-1.234,3.895-1.851c2.225,4.298,3.12,9.273,2.532,14.078
				c-0.588,4.804-2.655,9.417-5.851,13.052c0,0,2.428-7.628,2.071-13.523C685.61,297.627,683.352,292.26,683.352,292.26z"/>
		</g>
	</g>
	<g>
		<rect x="59.76" y="207.576" style="fill:#F5F5F5;" width="53.502" height="48.202"/>
		<path style="fill:#E6E6E6;" d="M64.925,245.974v-28.583c0-2.847,2.308-5.154,5.154-5.154h32.874c2.847,0,5.154,2.307,5.154,5.154
			v28.583c0,2.846-2.308,5.154-5.154,5.154H70.079C67.232,251.128,64.925,248.82,64.925,245.974z"/>
		<path style="fill:#E0E0E0;" d="M95.424,212.226c-0.404,1.412-1.714,2.372-3.182,2.33H80.779c-1.468,0.041-2.778-0.918-3.182-2.33
			H95.424z"/>
		<rect x="59.76" y="255.767" style="fill:#F0F0F0;" width="53.502" height="48.202"/>
		<path style="fill:#F5F5F5;" d="M64.925,294.165v-28.583c0-2.846,2.308-5.154,5.154-5.154h32.874c2.847,0,5.154,2.308,5.154,5.154
			v28.583c0,2.846-2.308,5.154-5.154,5.154H70.079C67.232,299.319,64.925,297.011,64.925,294.165z"/>
		<path style="fill:#E0E0E0;" d="M95.424,260.473c-0.405,1.411-1.715,2.366-3.182,2.319H80.779
			c-1.467,0.047-2.777-0.909-3.182-2.319H95.424z"/>
		<rect x="59.76" y="303.969" style="fill:#F5F5F5;" width="53.502" height="48.202"/>
		<path style="fill:#E6E6E6;" d="M64.925,342.367v-28.583c0-2.847,2.308-5.154,5.154-5.154h32.874c2.847,0,5.154,2.307,5.154,5.154
			v28.583c0,2.846-2.308,5.154-5.154,5.154H70.079C67.232,347.521,64.925,345.213,64.925,342.367z"/>
		<path style="fill:#E0E0E0;" d="M95.424,308.652c-0.405,1.41-1.715,2.366-3.182,2.319H80.779c-1.467,0.047-2.777-0.909-3.182-2.319
			H95.424z"/>
		<rect x="59.76" y="352.171" style="fill:#F0F0F0;" width="53.502" height="48.202"/>
		<path style="fill:#F5F5F5;" d="M64.925,390.569v-28.583c0-2.846,2.308-5.154,5.154-5.154h32.874c2.847,0,5.154,2.308,5.154,5.154
			v28.583c0,2.847-2.308,5.154-5.154,5.154H70.079C67.232,395.723,64.925,393.415,64.925,390.569z"/>
		<path style="fill:#E0E0E0;" d="M95.424,356.832c-0.404,1.412-1.714,2.372-3.182,2.331H80.779
			c-1.468,0.041-2.778-0.918-3.182-2.331H95.424z"/>
		<rect x="113.261" y="207.576" style="fill:#E0E0E0;" width="6.555" height="192.797"/>
		<rect x="115.009" y="207.576" style="fill:#F5F5F5;" width="53.502" height="48.202"/>
		<path style="fill:#E6E6E6;" d="M120.175,245.974v-28.583c0-2.847,2.308-5.154,5.154-5.154h32.874c2.847,0,5.154,2.307,5.154,5.154
			v28.583c0,2.846-2.308,5.154-5.154,5.154h-32.874C122.482,251.128,120.175,248.82,120.175,245.974z"/>
		<path style="fill:#E0E0E0;" d="M150.673,212.203c-0.396,1.413-1.704,2.375-3.171,2.331h-11.473
			c-1.459,0.043-2.763-0.906-3.171-2.308L150.673,212.203z"/>
		<rect x="115.009" y="255.767" style="fill:#F0F0F0;" width="53.502" height="48.202"/>
		<path style="fill:#F5F5F5;" d="M120.175,294.165v-28.583c0-2.846,2.308-5.154,5.154-5.154h32.874c2.847,0,5.154,2.308,5.154,5.154
			v28.583c0,2.846-2.308,5.154-5.154,5.154h-32.874C122.482,299.319,120.175,297.011,120.175,294.165z"/>
		<path style="fill:#E0E0E0;" d="M150.673,260.473c-0.429,1.378-1.729,2.296-3.171,2.241h-11.473
			c-1.441,0.051-2.738-0.866-3.171-2.241H150.673z"/>
		<rect x="115.009" y="303.969" style="fill:#F5F5F5;" width="53.502" height="48.202"/>
		<path style="fill:#E6E6E6;" d="M120.175,342.367v-28.583c0-2.847,2.308-5.154,5.154-5.154h32.874c2.847,0,5.154,2.307,5.154,5.154
			v28.583c0,2.846-2.308,5.154-5.154,5.154h-32.874C122.482,347.521,120.175,345.213,120.175,342.367z"/>
		<path style="fill:#E0E0E0;" d="M150.673,308.652c-0.4,1.409-1.707,2.365-3.171,2.319H136.04c-1.467,0.047-2.778-0.909-3.182-2.319
			H150.673z"/>
		<rect x="115.009" y="352.171" style="fill:#F0F0F0;" width="53.502" height="48.202"/>
		<path style="fill:#F5F5F5;" d="M120.175,390.569v-28.583c0-2.846,2.308-5.154,5.154-5.154h32.874c2.847,0,5.154,2.308,5.154,5.154
			v28.583c0,2.847-2.308,5.154-5.154,5.154h-32.874C122.482,395.723,120.175,393.415,120.175,390.569z"/>
		<path style="fill:#E0E0E0;" d="M150.673,356.832c-0.396,1.413-1.704,2.375-3.171,2.331H136.04
			c-1.469,0.041-2.778-0.918-3.182-2.331H150.673z"/>
		<rect x="168.522" y="207.576" style="fill:#E0E0E0;" width="6.555" height="192.797"/>
	</g>
	<g>
		<rect x="71.056" y="64.13" style="fill:#E6E6E6;" width="128.346" height="105.603"/>
		<rect x="75.501" y="68.182" style="fill:#FAFAFA;" width="120.356" height="96.599"/>
		<rect x="163.864" y="79.036" style="fill:#F5F5F5;" width="13.392" height="19.231"/>
		<rect x="167.667" y="93.094" style="fill:#E0E0E0;" width="19.483" height="27.977"/>
		<rect x="84.025" y="130.868" style="fill:#F5F5F5;" width="13.392" height="19.231"/>
		<rect x="82.713" y="90.745" style="fill:#F5F5F5;" width="13.392" height="13.392"/>
		<rect x="131.405" y="140.484" style="fill:#E0E0E0;" width="13.392" height="13.392"/>
		<g>
			<rect x="153.7" y="115.562" style="fill:#F5F5F5;" width="30.5" height="42.862"/>
			<rect x="157.877" y="121.771" style="fill:#E0E0E0;" width="21.911" height="0.47"/>
			<rect x="168.593" y="122.223" style="fill:#E0E0E0;" width="0.47" height="31.742"/>
			<rect x="178.65" y="122.223" style="fill:#E0E0E0;" width="0.47" height="31.742"/>
			<rect x="159.655" y="122.223" style="fill:#E0E0E0;" width="0.47" height="31.742"/>
			<rect x="158.084" y="122.223" style="fill:#E0E0E0;" width="0.47" height="31.742"/>
			<rect x="158.319" y="123.897" style="fill:#E0E0E0;" width="20.34" height="0.47"/>
		</g>
		<rect x="138.408" y="87.497" style="fill:#F5F5F5;" width="10.557" height="4.528"/>
		<rect x="140.46" y="121.56" style="fill:#F5F5F5;" width="10.557" height="3.523"/>
		<rect x="107.889" y="86.016" style="fill:#F0F0F0;" width="34.295" height="48.195"/>
		<rect x="138.101" y="129.356" style="fill:#F5F5F5;" width="10.557" height="3.523"/>
		<rect x="139.867" y="97.145" style="fill:#F5F5F5;" width="10.557" height="3.523"/>
		<rect x="137.54" y="105.893" style="fill:#F5F5F5;" width="10.557" height="3.523"/>
		<rect x="111.93" y="91.94" style="fill:#E0E0E0;" width="23.378" height="4.147"/>
		<polygon style="fill:#E0E0E0;" points="135.678,109.659 112.3,109.659 111.93,107.776 135.308,107.776 		"/>
		<rect x="111.93" y="100.234" style="fill:#E0E0E0;" width="8.293" height="4.147"/>
	</g>
</g>
<g id="Background_simple" style="display:none;">
	<g style="display:inline;">
		<path style="fill:#407BFF;" d="M279.808,91.482c-32.725,2.567-64.283,8.031-92.271,16.602
			c-32.987,10.102-66.692,25.84-56.737,46.424c18.379,38.003,106.545,38.695,88.941,64.247
			c-19.94,28.943-6.568,62.894,82.906,72.335c169.943,17.932,375.378-86.992,317.679-144.647
			C584.406,110.549,453.574,77.854,279.808,91.482z"/>
		<path style="opacity:0.9;fill:#FFFFFF;" d="M279.808,91.482c-32.725,2.567-64.283,8.031-92.271,16.602
			c-32.987,10.102-66.692,25.84-56.737,46.424c18.379,38.003,106.545,38.695,88.941,64.247
			c-19.94,28.943-6.568,62.894,82.906,72.335c169.943,17.932,375.378-86.992,317.679-144.647
			C584.406,110.549,453.574,77.854,279.808,91.482z"/>
	</g>
</g>
<g id="Shadow">
	<g>
		<g>
			<ellipse style="fill:#F5F5F5;" cx="353.386" cy="465.8" rx="252.458" ry="14.559"/>
		</g>
	</g>
</g>
<g id="Speech_Bubble">
	<g>
		<g>
			<g>
				<path style="fill:#407BFF;" d="M499.365,106.681c7.602-7.798,20.086-7.957,27.884-0.355s7.957,20.086,0.355,27.884
					c-5.869,6.02-14.641,7.467-21.926,4.325l-5.371,2.495l-0.341-6.248c-0.08-0.075-0.166-0.139-0.245-0.216
					C491.922,126.963,491.763,114.479,499.365,106.681z"/>
			</g>
			<path style="fill:none;stroke:#407BFF;stroke-width:0.5;stroke-linecap:round;stroke-linejoin:round;stroke-miterlimit:10;" d="
				M526.064,101.944c-5.07-3.924-12.174-5.053-18.21-2.891"/>
			<path style="fill:none;stroke:#407BFF;stroke-width:0.5;stroke-linecap:round;stroke-linejoin:round;stroke-miterlimit:10;" d="
				M505.121,100.142c-0.943,0.26-1.83,0.718-2.589,1.334"/>
		</g>
		<g>
			<path style="fill:#FFFFFF;" d="M513.118,129.934c-0.741,0-1.36-0.239-1.858-0.719c-0.497-0.479-0.745-1.062-0.745-1.749
				c0-0.687,0.244-1.261,0.732-1.722c0.488-0.461,1.112-0.691,1.871-0.691c0.759,0,1.383,0.23,1.871,0.691
				c0.488,0.461,0.732,1.035,0.732,1.722c0,0.688-0.248,1.271-0.746,1.749C514.479,129.695,513.86,129.934,513.118,129.934z
				 M514.799,123.128h-3.363l-0.841-12.393h5.044L514.799,123.128z"/>
		</g>
	</g>
</g>
<g id="Character_4">
	<g>
		<g>
			<g>
				<path style="fill:#407BFF;" d="M564.192,207.933c0,0-12.334-44.944-11.627-49.964c0.707-5.02,7.766-19.658,7.766-19.658
					l10.927,5.142l-4.407,15.15l11.559,31.129L564.192,207.933z"/>
				<path style="opacity:0.4;fill:#FFFFFF;" d="M564.192,207.933c0,0-12.334-44.944-11.627-49.964
					c0.707-5.02,7.766-19.658,7.766-19.658l10.927,5.142l-4.407,15.15l11.559,31.129L564.192,207.933z"/>
				<path style="fill:#FFAA53;" d="M561.32,137.569l6.923-12.827c0,0-0.543-2.399-0.521-4.177c0.022-1.778,0.164-4.032,2.171-6.2
					c2.007-2.168,2.749,0.007,2.749,0.007c2.059-1.947,3.393,0.188,3.393,0.188c1.974-1.708,3.745,0.377,3.745,0.377
					s2.343,2.055,2.815,3.406c0.472,1.351-1.75,5.994-1.75,5.994l-4.644,3.5l-5.094,14.116
					C570.797,141.91,561.32,137.569,561.32,137.569z"/>
				<g>
					<g>
						<path style="fill:#FF7800;" d="M573.159,122.773c1.239-1.235,2.95-1.853,4.692-1.711c0.099,0.008,0.19-0.076,0.217-0.165
							c0.273-0.917,0.545-1.834,0.818-2.75c0.028-0.095-0.019-0.204-0.103-0.254c-0.854-0.504-2.24-1.428-1.624-2.611
							c0.087-0.167,0.18-0.263,0.386-0.287c0.458-0.053,0.967,0.246,1.346,0.458c1.032,0.578,1.964,1.337,2.868,2.092
							c0.221,0.185,0.541-0.132,0.318-0.318c-0.855-0.714-1.732-1.422-2.686-2.002c-0.472-0.287-1.001-0.586-1.558-0.665
							c-0.588-0.083-0.993,0.217-1.177,0.76c-0.468,1.376,0.885,2.363,1.899,2.961c-0.034-0.085-0.069-0.169-0.103-0.254
							c-0.273,0.917-0.545,1.834-0.818,2.75c0.072-0.055,0.145-0.11,0.217-0.165c-1.855-0.152-3.693,0.53-5.01,1.842
							C572.636,122.659,572.954,122.978,573.159,122.773L573.159,122.773z"/>
					</g>
				</g>
				<g>
					<g>
						<path style="fill:#FF7800;" d="M568.462,116.692c-0.558,1.013,0.217,2.297,1.394,2.191c1.273-0.115,1.504-1.561,1.945-2.508
							c0.303-0.651,0.652-1.281,1.035-1.888c0.155-0.246-0.234-0.472-0.388-0.227c-0.364,0.578-0.698,1.177-0.991,1.794
							c-0.132,0.278-0.255,0.559-0.364,0.846c-0.111,0.291-0.207,0.589-0.359,0.863c-0.285,0.516-0.823,0.837-1.41,0.597
							c-0.556-0.228-0.755-0.929-0.473-1.441C568.991,116.665,568.602,116.438,568.462,116.692L568.462,116.692z"/>
					</g>
				</g>
				<g>
					<g>
						<path style="fill:#FF7800;" d="M570.939,117.62c0.15,0.682,0.546,1.355,1.183,1.684c0.563,0.291,1.295,0.289,1.822-0.085
							c0.632-0.449,0.729-1.308,0.989-1.982c0.316-0.822,0.759-1.599,1.298-2.296c0.175-0.226-0.141-0.547-0.318-0.318
							c-0.444,0.574-0.83,1.186-1.138,1.845c-0.148,0.317-0.281,0.643-0.394,0.974c-0.117,0.341-0.19,0.711-0.366,1.028
							c-0.303,0.546-0.964,0.72-1.534,0.505c-0.616-0.233-0.973-0.86-1.108-1.473C571.311,117.218,570.877,117.338,570.939,117.62
							L570.939,117.62z"/>
					</g>
				</g>
				<g>
					<g>
						<path style="fill:#FF7800;" d="M574.164,118.333c0.263,0.7,0.902,1.201,1.65,1.27c0.745,0.068,1.497-0.372,1.839-1.028
							c0.134-0.256-0.254-0.484-0.388-0.227c-0.269,0.514-0.823,0.844-1.407,0.809c-0.551-0.034-1.067-0.429-1.26-0.942
							C574.497,117.945,574.062,118.061,574.164,118.333L574.164,118.333z"/>
					</g>
				</g>
			</g>
			<g>
				<path style="fill:#407BFF;" d="M572.364,140.747c-1.115-1.139-2.846-1.661-4.49-2.134c-2.608-0.75-5.216-1.499-7.824-2.249
					c-0.921,0.022-1.62,1.408-1.682,2.196s0.167,1.489,0.84,2.029c0.673,0.539,1.514,0.895,2.341,1.243
					c1.953,0.822,3.905,1.643,5.858,2.465c1.526,0.642,3.936,1.856,4.635,0.527C572.83,143.327,573.479,141.887,572.364,140.747z"/>
			</g>
			<g style="opacity:0.6;">
				<path style="fill:#FFFFFF;" d="M572.364,140.747c-1.115-1.139-2.846-1.661-4.49-2.134c-2.608-0.75-5.216-1.499-7.824-2.249
					c-0.921,0.022-1.62,1.408-1.682,2.196s0.167,1.489,0.84,2.029c0.673,0.539,1.514,0.895,2.341,1.243
					c1.953,0.822,3.905,1.643,5.858,2.465c1.526,0.642,3.936,1.856,4.635,0.527C572.83,143.327,573.479,141.887,572.364,140.747z"/>
			</g>
		</g>
		<g>
			<path style="fill:#407BFF;" d="M586.171,190.852c0.672,0.185,3.798-0.196,4.466,0c0,0,5.8,0.265,10.827,2.462
				c0.725,0.303,3.933,4.829,4.652,5.147c4.562,2.013,7.75,3.758,12.021,6.335c-4.338,6.835-3.644,13.467-6.535,18.501
				c-9.593,16.707-16.579,24.409-20.294,36.617c-7.413-2.606-23.758-2.93-39.031-8.274c4.641-43.082,22.963-63.028,22.963-63.028
				C579.404,187.82,582.099,189.681,586.171,190.852z"/>
		</g>
		<g style="opacity:0.4;">
			<path style="fill:#FFFFFF;" d="M586.171,190.852c0.672,0.185,3.798-0.196,4.466,0c0,0,5.8,0.265,10.827,2.462
				c0.725,0.303,3.933,4.829,4.652,5.147c4.562,2.013,7.75,3.758,12.021,6.335c-4.338,6.835-3.644,13.467-6.535,18.501
				c-9.593,16.707-16.579,24.409-20.294,36.617c-7.413-2.606-23.758-2.93-39.031-8.274c4.641-43.082,22.963-63.028,22.963-63.028
				C579.404,187.82,582.099,189.681,586.171,190.852z"/>
		</g>
		<g>
			<g>
				<path style="fill:#263238;" d="M631.88,179.897c-1.773-1.368-3.911-2.266-5.478-3.866c-3.025-3.092-3.164-7.878-4.227-12.071
					c-1.861-7.339-7.222-13.707-14.137-16.79L595,154.73c1.533,10.116,1.473,20.472-0.175,30.571
					c-0.287,1.756-0.622,3.535-0.422,5.303c0.2,1.768,1.033,3.564,2.572,4.456c4.725,2.74,10.845-4.666,15.593-1.966
					c1.057,0.601,1.951,1.685,3.167,1.689c1.907,0.006,2.645-2.422,3.934-3.828c1.878-2.049,5.072-1.891,7.85-1.886
					c2.779,0.005,6.156-0.762,6.961-3.421C635.129,183.503,633.653,181.266,631.88,179.897z"/>
			</g>
			<path style="fill:#FFAA53;" d="M588.112,191.702c1.737-0.757,2.388-1.635,2.863-3.542c0.383-1.459,0.501-3.086,0.518-4.708
				l2.656-1.294l13.252-5.294c-2.928,6.108-8.082,14.631-4.694,20.109l-14.939,1.487L588.112,191.702z"/>
			<path style="opacity:0.2;" d="M590.637,188.964c2.915,0.419,7.462,0.137,9.302-2.661c0.757-1.151,1.274-2.385,1.525-3.242
				l-9.916,1.874C591.178,186.163,591.483,187.326,590.637,188.964z"/>
			<path style="fill:#FFAA53;" d="M615.196,168.398c-5.021,9.066-6.951,12.998-14.005,15.806
				c-10.61,4.224-20.788-3.245-18.61-13.463c1.96-9.197,9.843-22.476,20.863-22.366
				C614.301,148.484,620.218,159.332,615.196,168.398z"/>
			<path style="fill:#263238;" d="M600.57,166.267c-0.365,0.896-1.185,1.454-1.831,1.247c-0.646-0.207-0.875-1.102-0.51-1.997
				c0.365-0.896,1.185-1.455,1.831-1.248C600.706,164.476,600.935,165.371,600.57,166.267z"/>
			<path style="fill:#263238;" d="M604.462,164.135c-0.126-0.041-0.232-0.131-0.286-0.258c-0.843-1.996-2.687-2.262-2.708-2.265
				c-0.273-0.039-0.456-0.286-0.4-0.558c0.057-0.271,0.327-0.461,0.605-0.424c0.097,0.014,2.412,0.345,3.458,2.823
				c0.104,0.247-0.025,0.542-0.288,0.66C604.715,164.169,604.58,164.174,604.462,164.135z"/>
			<path style="fill:#263238;" d="M591.552,156.005c-0.096-0.081-0.161-0.194-0.171-0.324c-0.021-0.267,0.196-0.5,0.483-0.521
				c2.883-0.206,4.366,1.555,4.427,1.632c0.175,0.213,0.13,0.517-0.1,0.68c-0.229,0.163-0.556,0.123-0.732-0.088
				c-0.057-0.07-1.228-1.419-3.521-1.255C591.792,156.139,591.653,156.09,591.552,156.005z"/>
			<path style="fill:#FF7800;" d="M595.042,162.617c0,0-3.034,2.886-5.671,4.356c-0.461,0.257-0.528,0.899-0.148,1.265
				c0.977,0.943,2.514,1.155,2.514,1.155L595.042,162.617z"/>
			<path style="fill:#263238;" d="M600.394,164.494l-2.058-1.299C598.336,163.195,599.295,165.406,600.394,164.494z"/>
			<path style="fill:#263238;" d="M591.962,162.449c-0.365,0.896-1.185,1.454-1.831,1.247c-0.646-0.207-0.875-1.102-0.509-1.998
				c0.365-0.896,1.185-1.455,1.831-1.247C592.099,160.658,592.327,161.553,591.962,162.449z"/>
			<path style="fill:#263238;" d="M591.656,160.497l-2.058-1.299C589.598,159.197,590.557,161.408,591.656,160.497z"/>
			<path style="fill:#263238;" d="M604.625,182.508c5.747-1.215,14.009-7.717,15.731-14.701c1.795-7.282-1.758-14.861-10.066-18.867
				c-16.275-7.848-24.119,12.323-24.119,12.323c10.118-17.571,24.022-4.525,24.022-4.525c-6.1,6.198-1.437,13.606-1.437,13.606
				C609.118,176.336,604.625,182.508,604.625,182.508z"/>
			<path style="fill:#FFAA53;" d="M614.667,177.354c-1.968,1.446-4.316,1.865-6.162,1.55c-2.776-0.473-2.299-5.061-0.343-7.191
				c1.761-1.917,4.874-2.328,7.091-0.766C617.437,172.487,616.917,175.7,614.667,177.354z"/>
			
				<path style="opacity:0.2;fill:none;stroke:#000000;stroke-width:0.5;stroke-linecap:round;stroke-linejoin:round;stroke-miterlimit:10;" d="
				M612.473,172.606c0.936,0.011,1.566,0.883,1.566,1.66c0,0.941-1.197,2.65-3.921,2.253"/>
			<path style="fill:#263238;" d="M620.614,164.962c0.206-3.96-1.628-13.609-14.461-18.208c-12.833-4.598-18.383,2.94-18.383,2.94
				c2.753-1.519,5.852-2.303,8.997-2.275c-3.666,0.507-6.886,2.695-8.707,5.917c0.921-0.989,4.483-0.404,4.483-0.404
				c1.456-1.317,3.114-2.392,4.911-3.185c-1.872,0.798-3.053,4.254-3.053,4.254l3.696,1.774c0.877-2.096,2.446-3.827,4.445-4.905
				c-1.328,1.796-2.069,3.958-2.123,6.19c0.522-2.469,2.054-4.606,4.224-5.895c-1.428,1.923-2.478,4.099-3.095,6.413
				c1.725,1.565,3.237,3.349,4.498,5.307c0.482-2.647,1.835-5.057,3.844-6.846c-3.76,5.937-0.807,13.37-0.807,13.37
				S620.408,168.923,620.614,164.962z"/>
			<g>
				<path style="fill:#263238;" d="M593.54,173.383c0.416,1.128,0.753,3.207,0.753,3.207c0.194,0.004,0.388,0.007,0.581,0
					c2.631-0.019,3.845-0.897,4.393-1.865c0.298-0.53,0.391-1.095,0.406-1.554c0.023-0.531-0.082-0.915-0.082-0.915
					c-1.389,0.843-3.84,1.05-5.153,1.106C593.887,173.392,593.54,173.383,593.54,173.383z"/>
				<path style="fill:#FFFFFF;" d="M594.437,173.363l0.246,0.94c2.478-0.024,4.219-0.373,4.989-1.13
					c0.023-0.531-0.082-0.915-0.082-0.915C598.201,173.101,595.751,173.307,594.437,173.363z"/>
				<path style="fill:#FF222A;" d="M594.874,176.591c2.631-0.019,3.845-0.897,4.393-1.865c-0.896,0.041-1.972,0.19-2.917,0.6
					C595.627,175.637,595.174,176.112,594.874,176.591z"/>
			</g>
		</g>
		<g>
			<polygon style="fill:#FFAA53;" points="576.325,452.601 566.557,454.642 556.541,430.439 571.383,427.171 			"/>
			<g>
				<path style="fill:#263238;" d="M564.399,451.302l3.373-1.092c0.763-0.247,1.594-0.09,2.245,0.38
					c2.805,2.027,3.942,0.55,5.25-2.633c1.294-0.592,2.156,0.834,2.4,1.214l5.491,8.357c0.467,0.695,0.282,1.637-0.413,2.104
					c-0.124,0.083-0.259,0.147-0.401,0.191c-4.096,1.326-6.034,1.953-11.133,3.604l-15.593,5.048
					c-4.25,1.376-6.518-2.622-4.896-3.586c7.31-4.289,12.136-8.41,13.828-11.489C564.871,452.853,564.31,452.703,564.399,451.302z"
					/>
				<path style="fill:#407BFF;" d="M560.381,456.056c1.056-0.37,2.071-0.85,3.029-1.43c0.086-0.066,0.102-0.19,0.035-0.276
					c-0.036-0.047-0.091-0.075-0.15-0.076c-0.548-0.078-5.404-0.684-6.219,0.407c-0.156,0.193-0.189,0.459-0.083,0.684
					c0.147,0.436,0.491,0.775,0.929,0.916C558.745,456.47,559.606,456.391,560.381,456.056z M562.667,454.586
					c-1.169,0.634-3.382,1.691-4.572,1.286c-0.312-0.115-0.559-0.359-0.679-0.668c-0.052-0.093-0.04-0.208,0.028-0.289
					C557.896,454.318,560.666,454.382,562.667,454.586z"/>
				<path style="fill:#407BFF;" d="M563.369,454.651c0.047-0.001,0.093-0.016,0.132-0.043c0.04-0.068,0.037-0.152-0.009-0.216
					c-0.057-0.176-2.392-4.007-4.619-2.994c-0.548,0.263-0.624,0.591-0.571,0.83c0.213,1.148,3.541,2.37,4.979,2.488
					L563.369,454.651z M559.211,451.654c1.465-0.474,3.097,1.674,3.697,2.55c-1.612-0.281-4.099-1.386-4.195-2.097
					c-0.018-0.055-0.068-0.209,0.348-0.392L559.211,451.654z"/>
				<path style="fill:none;stroke:#407BFF;stroke-width:0.5;stroke-linecap:round;stroke-linejoin:round;stroke-miterlimit:10;" d="
					M562.899,454.664c1.213-0.218,2.516,0.128,3.462,0.918"/>
				<path style="fill:none;stroke:#407BFF;stroke-width:0.5;stroke-linecap:round;stroke-linejoin:round;stroke-miterlimit:10;" d="
					M561.314,456.92c1.213-0.218,2.516,0.128,3.462,0.918"/>
				<path style="fill:none;stroke:#407BFF;stroke-width:0.5;stroke-linecap:round;stroke-linejoin:round;stroke-miterlimit:10;" d="
					M559.135,459.092c1.213-0.217,2.516,0.128,3.462,0.918"/>
			</g>
			<polygon style="opacity:0.3;" points="563.35,446.893 564.203,448.952 575.007,445.813 574.523,443.323 			"/>
		</g>
		<g>
			<polygon style="fill:#FFAA53;" points="653.534,391.268 647.248,399.019 624.199,386.577 633.643,374.67 			"/>
			<g>
				<path style="fill:#263238;" d="M643.659,397.582l1.926-2.977c0.436-0.674,1.18-1.076,1.981-1.123
					c3.455-0.2,3.404-2.063,2.408-5.357c0.63-1.277,2.199-0.715,2.627-0.575l9.535,3.012c0.801,0.244,1.253,1.091,1.008,1.892
					c-0.043,0.142-0.108,0.278-0.19,0.401c-2.339,3.615-3.446,5.326-6.357,9.825l-8.903,13.761c-2.427,3.751-6.71,2.083-6.06,0.311
					c2.96-7.942,4.099-14.185,3.467-17.64C645.005,398.486,644.475,398.724,643.659,397.582z"/>
				<path style="fill:#407BFF;" d="M643.546,403.805c0.585-0.954,1.07-1.967,1.445-3.022c0.025-0.106-0.041-0.212-0.147-0.236
					c-0.057-0.013-0.117,0-0.164,0.035c-0.474,0.286-4.622,2.882-4.565,4.243c0.001,0.249,0.143,0.475,0.367,0.582
					c0.389,0.245,0.871,0.291,1.299,0.124C642.539,405.159,643.157,404.554,643.546,403.805z M644.39,401.222
					c-0.506,1.23-1.555,3.447-2.733,3.884c-0.314,0.108-0.66,0.075-0.948-0.09c-0.099-0.039-0.163-0.136-0.161-0.242
					C640.521,404.027,642.71,402.327,644.39,401.222z"/>
				<path style="fill:#407BFF;" d="M644.976,400.829c0.036-0.031,0.062-0.071,0.075-0.117c-0.011-0.078-0.068-0.141-0.144-0.162
					c-0.156-0.101-4.385-1.596-5.472,0.595c-0.259,0.549-0.11,0.852,0.081,1.004c0.89,0.755,4.242-0.399,5.432-1.214
					L644.976,400.829z M639.859,401.13c0.836-1.293,3.458-0.658,4.477-0.357c-1.427,0.8-4.053,1.513-4.577,1.023
					c-0.049-0.031-0.185-0.119,0.022-0.524L639.859,401.13z"/>
				<path style="fill:none;stroke:#407BFF;stroke-width:0.5;stroke-linecap:round;stroke-linejoin:round;stroke-miterlimit:10;" d="
					M644.619,401.135c0.803-0.935,2.031-1.49,3.264-1.474"/>
				<path style="fill:none;stroke:#407BFF;stroke-width:0.5;stroke-linecap:round;stroke-linejoin:round;stroke-miterlimit:10;" d="
					M644.815,403.886c0.803-0.935,2.032-1.49,3.264-1.475"/>
				<path style="fill:none;stroke:#407BFF;stroke-width:0.5;stroke-linecap:round;stroke-linejoin:round;stroke-miterlimit:10;" d="
					M644.496,406.946c0.804-0.935,2.032-1.49,3.264-1.474"/>
			</g>
			<polygon style="opacity:0.3;" points="637.098,393.744 640.568,395.413 646.858,385.691 644.607,383.812 			"/>
		</g>
		<g>
			<path style="fill:#407BFF;" d="M582.133,252.825c0,0-12.451,74.292-16.25,106.657l12.231,83.116l-19.088,5.413
				c0,0-18.453-64.199-21.845-95.297c-2.271-27.775,10.237-100.405,15.125-102.22L582.133,252.825z"/>
			<path style="opacity:0.2;enable-background:new    ;" d="M576.492,278.192c-3.803,18.169-6.424,54.613-9.813,74.947
				c-2.478-13.907-6.577-55.657,4.951-74.971C576.913,269.255,575.738,267.687,576.492,278.192z"/>
			<path style="fill:#407BFF;" d="M593.252,253.724c0,0,4.208,9.11,5.088,32.08c0.735,19.159-0.491,48.483,1.283,63.269
				c18.384,4.444,45.072,34.66,45.072,34.66l-6.835,11.156c0,0-57.753-23.121-63.713-37.438
				c-5.382-29.184-10.601-106.047-10.601-106.047L593.252,253.724z"/>
		</g>
		<g>
			<path style="fill:#407BFF;" d="M635.372,221.873c-0.785,1.879-1.088,4.374-1.556,6.661c-5.804-5.813-8.408-13.562-12.349-20.601
				l-3.33-3.137l-12.476,9.924l0.012,0.032c5.945,11.638,13.828,22.504,25.261,29.349c4.126,2.48,9.482,1.146,11.962-2.98
				c0.077-0.128,0.151-0.258,0.221-0.39c2.818-4.716,2.529-6.368,3.428-11.044L635.372,221.873z"/>
			<path style="opacity:0.4;fill:#FFFFFF;" d="M635.372,221.873c-0.785,1.879-1.088,4.374-1.556,6.661
				c-5.804-5.813-8.408-13.562-12.349-20.601l-3.33-3.137l-12.476,9.924l0.012,0.032c5.945,11.638,13.828,22.504,25.261,29.349
				c4.126,2.48,9.482,1.146,11.962-2.98c0.077-0.128,0.151-0.258,0.221-0.39c2.818-4.716,2.529-6.368,3.428-11.044L635.372,221.873z
				"/>
			<path style="fill:#407BFF;" d="M634.511,225.071c0,0-1.019-0.281-2.067,1.986c-1.048,2.267-0.251,13.871,2.584,16.086
				c2.835,2.215,6.201,4.163,8.947,1.329s2.394-12.296,2.303-12.738c-0.09-0.443-9.78-8.998-11.959-6.219"/>
			<path style="opacity:0.6;fill:#FFFFFF;" d="M634.511,225.071c0,0-1.019-0.281-2.067,1.986
				c-1.048,2.267-0.251,13.871,2.584,16.086c2.835,2.215,6.201,4.163,8.947,1.329s2.394-12.296,2.303-12.738
				c-0.09-0.443-9.78-8.998-11.959-6.219"/>
			<path style="fill:#FFAA53;" d="M638.047,216.21l0.556-11.519c0,0-1.431-2-2.101-3.647c-0.67-1.647-1.413-3.779-0.405-6.557
				c1.008-2.777,2.162-0.919,2.162-0.919c1.391-2.644,3.575-1.285,3.575-1.285c1.156-2.34,3.598-1.106,3.598-1.106
				s2.957,0.985,3.916,2.047c0.959,1.062,0.714,6.204,0.714,6.204l-2.921,5.028l0.159,11.489
				C647.095,215.945,638.047,216.21,638.047,216.21z"/>
			<path style="fill:#FFAA53;" d="M633.816,228.533l4.787-23.842l8.562,0.24c0,0,1.122,26.887-2.796,33.464
				c-3.918,6.577-7.02,1.879-7.02,1.879C635.127,237.019,633.966,233.095,633.816,228.533z"/>
		</g>
		<path style="opacity:0.2;" d="M611.096,224.174l-1.146-5.929c0,0-4.972,8.423-3.672,13.921L611.096,224.174z"/>
		<polyline style="opacity:0.2;" points="563.979,207.154 568.933,197.363 562.657,202.259 564.192,207.933 		"/>
	</g>
</g>
<g id="Character_3">
	<g>
		<g>
			<g>
				<path style="fill:#B97964;" d="M376.206,167.325l-3.748-11.443c0,0-2.141-1.418-3.408-2.775
					c-1.267-1.357-2.786-3.16-2.837-6.245c-0.051-3.085,1.766-1.702,1.766-1.702c0.372-3.097,3.008-2.585,3.008-2.585
					c0.256-2.714,3.098-2.419,3.098-2.419s3.251-0.14,4.582,0.538c1.331,0.679,3.007,5.785,3.007,5.785l-0.977,5.993l4.86,10.971
					C385.358,163.52,376.206,167.325,376.206,167.325z"/>
				<g style="opacity:0.3;">
					<g>
						<path d="M375.105,150.488c0.044-1.829,0.893-3.531,2.311-4.683c0.08-0.065,0.078-0.19,0.035-0.273
							c-0.456-0.888-0.912-1.777-1.368-2.665c-0.047-0.09-0.161-0.125-0.254-0.103c-0.789,0.185-1.708,0.411-2.46-0.018
							c-0.279-0.159-0.588-0.479-0.638-0.756c-0.008-0.047,0-0.068,0.015-0.086c0.069-0.078,0.176-0.128,0.286-0.174
							c0.531-0.219,1.154-0.279,1.718-0.352c1.25-0.161,2.511-0.248,3.768-0.331c0.287-0.019,0.29-0.469,0-0.45
							c-1.436,0.095-2.88,0.189-4.304,0.405c-0.528,0.08-1.205,0.143-1.654,0.469c-0.248,0.18-0.328,0.429-0.241,0.721
							c0.461,1.537,2.461,1.28,3.628,1.007c-0.085-0.034-0.169-0.069-0.254-0.103c0.456,0.889,0.912,1.777,1.368,2.665
							c0.012-0.091,0.023-0.182,0.035-0.273c-1.508,1.224-2.397,3.062-2.443,5.001C374.648,150.778,375.098,150.778,375.105,150.488
							L375.105,150.488z"/>
					</g>
				</g>
				<g style="opacity:0.3;">
					<g>
						<path d="M366.824,149.655c0.167,0.612,0.701,1.087,1.338,1.152c0.637,0.065,1.269-0.327,1.53-0.904
							c0.352-0.776-0.077-1.578-0.375-2.293c-0.336-0.809-0.588-1.65-0.765-2.507c-0.058-0.284-0.492-0.164-0.434,0.12
							c0.136,0.66,0.315,1.309,0.545,1.942c0.224,0.618,0.6,1.231,0.696,1.886c0.086,0.587-0.251,1.157-0.846,1.29
							c-0.561,0.126-1.11-0.271-1.256-0.806C367.182,149.257,366.748,149.375,366.824,149.655L366.824,149.655z"/>
					</g>
				</g>
				<g style="opacity:0.3;">
					<g>
						<path d="M369.704,148.423c0.609,0.405,1.385,0.623,2.106,0.412c0.623-0.183,1.166-0.71,1.296-1.357
							c0.161-0.808-0.403-1.535-0.694-2.245c-0.347-0.846-0.57-1.74-0.666-2.649c-0.03-0.285-0.481-0.288-0.45,0
							c0.076,0.713,0.215,1.416,0.437,2.098c0.108,0.332,0.234,0.658,0.375,0.977c0.158,0.357,0.369,0.697,0.494,1.067
							c0.219,0.648-0.079,1.287-0.688,1.588c-0.65,0.321-1.411,0.1-1.982-0.279C369.689,147.873,369.464,148.263,369.704,148.423
							L369.704,148.423z"/>
					</g>
				</g>
				<g style="opacity:0.3;">
					<g>
						<path d="M373.124,146.116c0.716,0.347,1.595,0.246,2.2-0.278c0.572-0.495,0.799-1.336,0.588-2.057
							c-0.081-0.277-0.516-0.159-0.434,0.12c0.166,0.565-0.007,1.199-0.445,1.595c-0.444,0.402-1.146,0.491-1.682,0.231
							c-0.109-0.053-0.243-0.03-0.308,0.081C372.986,145.907,373.014,146.063,373.124,146.116L373.124,146.116z"/>
					</g>
				</g>
			</g>
			<g>
				<path style="fill:#263238;" d="M441.433,165.002c0,0-10.169-0.099-16.387,1.856c-5.464,1.718-27.906,9.286-28.433,8.948
					c-0.527-0.338-12.145-21.094-12.145-21.094l-12.544,4.719c0,0,8.46,28.355,14.999,32.5c9.12,5.78,44.114-6.005,44.114-6.005
					L441.433,165.002z"/>
			</g>
			<polygon style="opacity:0.2;enable-background:new    ;" points="429.744,186.348 425.52,177.57 422.751,188.452 			"/>
		</g>
		<g>
			<path style="fill:#263238;" d="M441.8,136.505c-5.642,1.636-5.012-6.168-3.196-9.724
				C441.695,120.614,447.442,134.869,441.8,136.505z"/>
			<g>
				<path style="fill:#B97964;" d="M451.692,175.658c6.231-1.561,11.471-5.765,14.346-11.51c-1.649-0.911-3.022-2.248-3.977-3.872
					c-2.175-3.715-3.698-7.775-4.502-12.005c-0.523-2.429-0.924-4.883-1.2-7.353l-4.502,7.203L446.86,156
					c0.751,1.188,1.408,2.432,1.966,3.721c1.501,3.632,1.426,7.128-3.001,9.814C445.224,172.237,445.765,177.324,451.692,175.658z"
					/>
				<path style="opacity:0.2;enable-background:new    ;" d="M459.618,155.294c0,0-2.278,7.795-10.221,6.103l-0.571-1.676
					L459.618,155.294z"/>
			</g>
			<path style="fill:#B97964;" d="M464.096,130.356c-2.427-7.053-10.111-10.804-17.164-8.377
				c-9.724,3.361-11.705,17.782-9.994,26.651c1.906,9.874,13.761,14.991,21.504,7.863c5.162-4.742,5.267-10.489,6.303-20.213
				C464.972,134.282,464.751,132.258,464.096,130.356z"/>
			<path style="fill:#263238;" d="M451.929,146.409c0.088-0.093,0.088-0.238,0-0.33c-0.093-0.088-0.238-0.088-0.33,0
				c-1.304,1.52-3.255,2.329-5.252,2.176c-0.039-0.01-0.08-0.01-0.119,0c-0.128,0.033-0.206,0.164-0.173,0.292
				c0.033,0.128,0.164,0.206,0.292,0.173c0.345,0.023,0.691,0.023,1.035,0C449.151,148.607,450.795,147.771,451.929,146.409z"/>
			<path style="fill:#263238;" d="M433.868,128.702c0,0,0.916,1.065,1.756,0.705c-0.865-1.4-0.781-3.188,0.21-4.502
				c0,0,0.63,1.501,1.35,1.501c0.385-3.63,1.872-7.055,4.262-9.814c4.142-5.102,18.007,0.63,18.007,0.63s2.746-2.446,8.568,1.666
				c5.582,3.942,6.288,12.091,4.513,15.482c-1.488,3.454-5.053,6.891-9.921,8.768c-2.441-2.767-2.667-7.092-2.464-10.102
				c-0.729-0.18-1.411-0.543-1.971-1.078c-2.176-2.071-0.675-9.679-9.229-8.178c-1.527-0.905-3.442-0.829-4.892,0.195
				c-2.611,1.726-3.917,10.594-7.593,8.178C432.788,129.737,433.868,128.702,433.868,128.702z"/>
			<g>
				<g>
					<g>
						<path style="fill:#263238;" d="M448.054,139.352c0.03-0.196,0.077-0.389,0.145-0.576c0.03-0.081,0.032-0.089,0.08-0.186
							c0.04-0.08,0.084-0.157,0.132-0.232c0.023-0.036,0.048-0.071,0.073-0.106c0.039-0.054-0.014,0.012,0.03-0.037
							c0.053-0.06,0.107-0.119,0.166-0.173c0.01-0.009,0.091-0.076,0.063-0.055c-0.029,0.022,0.055-0.037,0.066-0.044
							c0.026-0.017,0.053-0.032,0.08-0.047c0.026-0.014,0.123-0.052,0.046-0.025c0.06-0.021,0.122-0.032,0.181-0.051
							c0.039-0.013-0.024,0.003-0.029,0.003c0.019-0.001,0.038-0.003,0.057-0.004c0.032-0.001,0.067,0.005,0.099,0.002
							c0.051-0.005-0.064-0.017-0.015-0.003c0.013,0.004,0.028,0.005,0.041,0.008c0.027,0.006,0.054,0.014,0.081,0.022
							c0.018,0.006,0.035,0.013,0.053,0.019c-0.005-0.002-0.058-0.032-0.026-0.01c0.03,0.021,0.067,0.035,0.098,0.055
							c0.012,0.008,0.079,0.058,0.044,0.029c-0.037-0.03,0.039,0.037,0.05,0.048c0.021,0.021,0.042,0.043,0.062,0.065
							c0.014,0.015,0.027,0.031,0.04,0.047c-0.022-0.026-0.023-0.033-0.002-0.001c0.039,0.059,0.077,0.117,0.11,0.18
							c0.018,0.035,0.036,0.07,0.052,0.106c-0.028-0.063,0.021,0.057,0.026,0.073c0.126,0.365,0.152,0.741,0.101,1.106
							c-0.028,0.2,0.049,0.403,0.262,0.461c0.175,0.048,0.433-0.06,0.461-0.262c0.116-0.832,0.007-1.857-0.707-2.411
							c-0.313-0.243-0.696-0.333-1.085-0.25c-0.371,0.079-0.704,0.332-0.938,0.623c-0.331,0.411-0.538,0.906-0.618,1.427
							c-0.031,0.2,0.051,0.403,0.262,0.461C447.77,139.662,448.023,139.553,448.054,139.352L448.054,139.352z"/>
					</g>
				</g>
				<g>
					<g>
						<path style="fill:#263238;" d="M438.376,138.039c0.029-0.189,0.073-0.376,0.138-0.556c0.043-0.121,0.11-0.262,0.199-0.406
							c0.095-0.153,0.126-0.194,0.264-0.325c0.024-0.023,0.049-0.044,0.074-0.066c0.053-0.047,0.013-0.011,0-0.001
							c0.013-0.009,0.026-0.019,0.039-0.027c0.06-0.04,0.126-0.069,0.187-0.107c0.035-0.022-0.015,0.007-0.021,0.009
							c0.014-0.004,0.027-0.01,0.041-0.015c0.032-0.01,0.064-0.02,0.098-0.028c0.041-0.009,0.078-0.008,0.013-0.005
							c0.033-0.001,0.066-0.005,0.099-0.005c0.041,0,0.101,0.012,0.028-0.003c0.029,0.006,0.058,0.011,0.087,0.018
							c0.029,0.008,0.056,0.018,0.084,0.028c-0.081-0.027,0.021,0.014,0.044,0.027c0.026,0.015,0.051,0.032,0.076,0.05
							c-0.06-0.042,0.012,0.013,0.031,0.031c0.023,0.022,0.046,0.045,0.067,0.068c0.011,0.012,0.021,0.025,0.032,0.037
							c0.046,0.051-0.011-0.019,0.013,0.016c0.039,0.057,0.076,0.115,0.109,0.176c0.02,0.037,0.038,0.075,0.056,0.113
							c0,0.001,0.024,0.056,0.01,0.023c-0.012-0.03,0.013,0.036,0.015,0.042c0.033,0.091,0.06,0.184,0.082,0.278
							c0.012,0.052,0.021,0.105,0.031,0.157c0-0.002,0.01,0.064,0.005,0.031c-0.003-0.025,0.005,0.045,0.005,0.052
							c0.01,0.104,0.015,0.21,0.013,0.314c-0.001,0.057-0.003,0.114-0.008,0.171c-0.001,0.022-0.003,0.043-0.005,0.065
							c-0.001,0.007-0.01,0.088-0.005,0.051c-0.029,0.2,0.049,0.403,0.262,0.461c0.176,0.048,0.433-0.06,0.461-0.262
							c0.122-0.859-0.029-1.901-0.772-2.454c-0.681-0.506-1.53-0.134-1.998,0.468c-0.309,0.398-0.501,0.878-0.578,1.375
							c-0.031,0.2,0.051,0.403,0.262,0.461C438.092,138.35,438.345,138.241,438.376,138.039L438.376,138.039z"/>
					</g>
				</g>
				<path style="fill:#263238;" d="M437.896,131.819c0.151,0.117,0.352,0.144,0.528,0.072c1.18-0.54,2.545-0.491,3.683,0.131
					c0.233,0.156,0.547,0.093,0.703-0.139c0.156-0.233,0.093-0.548-0.139-0.703c-0.001-0.001-0.001-0.001-0.002-0.001
					c-1.419-0.823-3.149-0.907-4.641-0.225c-0.26,0.103-0.388,0.397-0.285,0.658c0.001,0.004,0.003,0.007,0.005,0.011
					C437.787,131.695,437.837,131.762,437.896,131.819z"/>
				<path style="fill:#263238;" d="M453.085,134.421c0.102,0.013,0.206-0.007,0.296-0.057c0.215-0.18,0.243-0.5,0.064-0.714
					c-0.002-0.003-0.005-0.006-0.007-0.008c-1.046-1.27-2.646-1.952-4.287-1.827c-0.277,0.038-0.472,0.293-0.434,0.571l0,0.001
					c0.044,0.275,0.296,0.465,0.572,0.434l0,0c1.298-0.061,2.549,0.495,3.373,1.5C452.78,134.415,452.936,134.451,453.085,134.421z"
					/>
			</g>
			<g>
				<path style="fill:#B97964;" d="M470.017,144.43c-1.019,2.488-2.983,4.471-5.462,5.513c-3.291,1.357-5.357-1.49-4.802-4.82
					c0.521-2.954,2.838-7.317,6.321-7.224C469.556,137.992,471.229,141.36,470.017,144.43z"/>
				<path style="opacity:0.3;fill:none;stroke:#000000;stroke-width:0.5;stroke-miterlimit:10;" d="M462.091,145.687
					c0.169-1.81,1.18-3.525,2.682-4.549c0.639-0.436,1.529-0.738,2.154-0.283"/>
			</g>
			<g>
				<path style="fill:#263238;" d="M446.35,147.553c2.078-0.301,4.068-1.041,5.837-2.17c0.133,0.336,0.216,0.69,0.246,1.05
					c0.072,0.639-0.014,1.286-0.251,1.884c-0.485,1.223-1.743,2.458-4.818,2.924c-0.226,0.046-0.454,0.08-0.683,0.102
					c-0.391-1.238-0.871-2.447-1.436-3.615C445.245,147.728,445.664,147.681,446.35,147.553z"/>
				<path style="fill:#FFFFFF;" d="M452.137,145.377c0.133,0.336,0.216,0.689,0.246,1.05c-0.766,1.018-2.74,1.72-5.633,2.184
					l-0.45-1.064C448.377,147.246,450.367,146.506,452.137,145.377z"/>
				<path style="fill:#FF222A;" d="M448.87,149.511c1.025-0.59,2.147-0.994,3.313-1.194c-0.485,1.223-1.743,2.458-4.818,2.924
					C447.674,150.522,448.2,149.917,448.87,149.511z"/>
			</g>
			<path style="fill:#A24E3F;" d="M443.88,137.415c-1.425,2.469-3.185,4.73-5.23,6.718c1.063,1.037,2.531,1.551,4.009,1.404
				L443.88,137.415z"/>
		</g>
		<g>
			<g>
				<g>
					<g>
						<g>
							<polygon style="fill:#B97964;" points="520.683,426.918 526.123,454.936 517.209,456.431 507.216,431.768 							"/>
						</g>
					</g>
				</g>
			</g>
			<g>
				<g>
					<g>
						<g>
							<g>
								<g>
									<g>
										<g>
											<g>
												<g>
													<g>
														<g>
															<path style="fill:#263238;" d="M527.946,469.959l-7.799-0.058c0,0-1.57-0.85-2.497-0.745
																c-0.924,0.106-4.14,0.694-4.14,0.694l-20.152-0.055c0.172-0.867,0.113-1.704,0.351-2.388
																c0.29-0.833,0.337-1.573,0.707-2.169c1.299-2.084,1.576-2.36,5.324-3.567c2.951-0.95,11.709-5.537,11.709-5.537
																s2.299-0.202,2.505-3.725c0.078-1.321,2.041-2.919,2.97-3.044c1.896-0.259,2.94,0.948,3.201,2.843l0.096,1.341
																l2.279-0.641c0,0,4.467-2.206,4.234-0.032c-0.133,1.241,2.403,6.687,1.901,11.071
																c-0.118,1.022-0.228,1.989-0.324,2.837l-0.002,0.001C528.096,468.665,527.946,469.959,527.946,469.959z"/>
														</g>
													</g>
												</g>
											</g>
										</g>
									</g>
									<g style="opacity:0.2;">
										<path style="fill:#FFFFFF;" d="M493.359,469.795l20.151,0.055c0,0,3.216-0.588,4.14-0.694
											c0.927-0.105,2.497,0.745,2.497,0.745l7.799,0.058c0,0,0.15-1.294,0.365-3.176l-34.601,0.623
											C493.473,468.09,493.531,468.928,493.359,469.795z"/>
									</g>
									<g>
										<g>
											<g>
												<g>
													<path style="fill:#407BFF;" d="M506.89,458.359c0.097-0.093,0.245-0.102,0.356-0.027
														c0.511,0.345,0.938,0.829,1.227,1.435c0.152,0.319-0.315,0.623-0.468,0.301c-0.257-0.538-0.63-0.967-1.076-1.269
														c-0.149-0.101-0.173-0.31-0.043-0.435C506.887,458.362,506.888,458.361,506.89,458.359z"/>
												</g>
											</g>
										</g>
									</g>
									<g>
										<g>
											<g>
												<g>
													<path style="fill:#407BFF;" d="M508.544,457.401c0.097-0.093,0.245-0.102,0.356-0.027
														c0.511,0.345,0.938,0.829,1.227,1.435c0.152,0.319-0.315,0.623-0.468,0.301c-0.257-0.538-0.631-0.967-1.077-1.269
														c-0.149-0.101-0.172-0.31-0.043-0.435C508.541,457.404,508.543,457.403,508.544,457.401z"/>
												</g>
											</g>
										</g>
									</g>
									<g>
										<g>
											<g>
												<g>
													<path style="fill:#407BFF;" d="M510.25,456.508c0.097-0.093,0.245-0.102,0.356-0.027
														c0.511,0.345,0.938,0.829,1.227,1.435c0.152,0.319-0.315,0.623-0.468,0.3c-0.256-0.538-0.63-0.967-1.077-1.269
														c-0.149-0.101-0.172-0.31-0.043-0.435C510.247,456.511,510.249,456.509,510.25,456.508z"/>
												</g>
											</g>
										</g>
									</g>
								</g>
							</g>
						</g>
					</g>
				</g>
			</g>
		</g>
		<g>
			<g>
				<g>
					<g>
						<g>
							<polygon style="fill:#B97964;" points="419.141,428.089 411.227,455.511 402.61,452.783 404.943,426.275 							"/>
						</g>
					</g>
				</g>
			</g>
			<g>
				<g>
					<g>
						<g>
							<g>
								<g>
									<g>
										<g>
											<g>
												<g>
													<g>
														<g>
															<path style="fill:#263238;" d="M414.275,469.708l-7.799-0.058c0,0-1.57-0.85-2.497-0.745
																c-0.924,0.106-4.14,0.694-4.14,0.694l-20.152-0.055c0.172-0.867,0.113-1.704,0.351-2.388
																c0.29-0.834,0.337-1.573,0.707-2.169c1.299-2.084,1.576-2.36,5.324-3.567c2.951-0.95,11.709-5.537,11.709-5.537
																s2.299-0.202,2.505-3.725c0.078-1.321,2.041-2.919,2.97-3.044c1.896-0.259,2.94,0.948,3.202,2.843l0.096,1.341
																l2.279-0.641c0,0,4.467-2.206,4.234-0.032c-0.133,1.241,2.403,6.687,1.901,11.071
																c-0.118,1.022-0.228,1.988-0.324,2.837l-0.002,0.001C414.425,468.415,414.275,469.708,414.275,469.708z"/>
														</g>
													</g>
												</g>
											</g>
										</g>
									</g>
									<g style="opacity:0.2;">
										<path style="fill:#FFFFFF;" d="M379.688,469.544l20.151,0.055c0,0,3.216-0.588,4.14-0.694
											c0.927-0.105,2.497,0.745,2.497,0.745l7.799,0.058c0,0,0.15-1.294,0.365-3.176l-34.601,0.624
											C379.801,467.84,379.86,468.677,379.688,469.544z"/>
									</g>
									<g>
										<g>
											<g>
												<g>
													<path style="fill:#407BFF;" d="M393.218,458.108c0.097-0.093,0.245-0.102,0.356-0.027
														c0.511,0.345,0.938,0.829,1.227,1.435c0.152,0.319-0.315,0.623-0.468,0.301c-0.257-0.538-0.63-0.967-1.076-1.269
														c-0.149-0.101-0.173-0.31-0.043-0.435C393.215,458.111,393.217,458.11,393.218,458.108z"/>
												</g>
											</g>
										</g>
									</g>
									<g>
										<g>
											<g>
												<g>
													<path style="fill:#407BFF;" d="M394.873,457.151c0.097-0.093,0.245-0.102,0.356-0.027
														c0.511,0.345,0.938,0.829,1.227,1.435c0.152,0.319-0.315,0.623-0.468,0.301c-0.257-0.539-0.631-0.967-1.077-1.269
														c-0.149-0.101-0.172-0.31-0.043-0.435C394.87,457.153,394.872,457.152,394.873,457.151z"/>
												</g>
											</g>
										</g>
									</g>
									<g>
										<g>
											<g>
												<g>
													<path style="fill:#407BFF;" d="M396.579,456.257c0.096-0.093,0.245-0.102,0.356-0.027
														c0.511,0.345,0.938,0.829,1.227,1.435c0.152,0.319-0.315,0.623-0.469,0.3c-0.256-0.538-0.63-0.967-1.076-1.269
														c-0.149-0.101-0.172-0.31-0.043-0.436C396.576,456.26,396.577,456.259,396.579,456.257z"/>
												</g>
											</g>
										</g>
									</g>
								</g>
							</g>
						</g>
					</g>
				</g>
			</g>
		</g>
		<g>
			<path style="fill:#407BFF;" d="M401.624,446.402l18.549,4.355c0,0,6.088-59.249,16.114-90.906
				c5.508-17.354,15.191-45.062,23.718-68.779c4.159-11.75,8.055-22.515,10.977-30.581c3.201-8.872,5.236-14.466,5.236-14.466
				l-32.651-14.987c0,0-26.756,85.987-34.119,115.611C401.361,379.099,401.624,446.402,401.624,446.402z"/>
			<path style="opacity:0.4;enable-background:new    ;" d="M401.624,446.402l18.549,4.355c0,0,6.088-59.249,16.114-90.906
				c5.508-17.354,15.191-45.062,23.718-68.779c4.159-11.75,8.055-22.515,10.977-30.581c3.201-8.872,5.236-14.466,5.236-14.466
				l-32.651-14.987c0,0-26.756,85.987-34.119,115.611C401.361,379.099,401.624,446.402,401.624,446.402z"/>
			<path style="opacity:0.3;enable-background:new    ;" d="M459.945,291.082c4.159-11.75,8.055-22.515,10.977-30.581
				c-2.245,0.064-4.407,0.866-6.15,2.284C460.692,271.625,459.026,281.389,459.945,291.082z"/>
			<path style="fill:#407BFF;" d="M456.644,235.637c0,0,12.185,89.226,18.187,119.163c6.468,32.803,35.234,93.638,35.234,93.638
				l18.638-3.917c0,0-19.598-56.228-23.935-89.166c-4.847-36.81-12.125-120.049-12.125-120.049L456.644,235.637z"/>
			<path style="opacity:0.4;enable-background:new    ;" d="M456.644,235.637c0,0,12.185,89.226,18.187,119.163
				c6.468,32.803,35.234,93.638,35.234,93.638l18.638-3.917c0,0-19.598-56.228-23.935-89.166
				c-4.847-36.81-12.125-120.049-12.125-120.049L456.644,235.637z"/>
		</g>
		<g>
			
				<rect x="486.484" y="264.355" transform="matrix(0.9887 -0.1498 0.1498 0.9887 -36.3937 79.4161)" style="fill:#407BFF;" width="45.144" height="33.95"/>
			
				<rect x="487.46" y="267.965" transform="matrix(0.9887 -0.1498 0.1498 0.9887 -37.0793 76.4246)" style="fill:#FFFFFF;" width="2.797" height="32.85"/>
			<g>
				<path style="fill:#B97964;" d="M508.67,265.18c0.534,0.402,1.482,6.584,0.924,8.523c-0.558,1.939-1.67,5.44-0.599,6.017
					c1.071,0.577,1.827-0.956,1.827-0.956s0.117,1.781,1.068,0.879s4.643-6.514,5.07-8.799c0.427-2.285-2.196-11.836-2.394-14.087
					c-0.06-0.677,0.811-7.946,0.811-7.946l-8.794,0.095l0.891,7.965c-0.205,0.274-1.655,3.93-2.073,5.309l-0.473,2.607
					L508.67,265.18z"/>
			</g>
			<path style="fill:#263238;" d="M488.667,167.233c0,0,0.474-2.135,10.005,14.404c8.169,14.176,12.464,23.03,15.076,30.574
				c3.641,10.633,3.247,45.042,3.247,45.042l-11.133,0.03c0,0-0.854-26.048-4.25-35.366c-3.396-9.319-14.657-20.025-16.87-30.215
				c-0.488-2.252-1.544-6.617-1.69-11.016C482.812,173.496,483.886,171.097,488.667,167.233z"/>
		</g>
		<g>
			<g>
				<path style="fill:#263238;" d="M469.534,162.299h-4.703l-3.496-3.321c0,0-8.826,9.742-8.952,9.413
					c-0.126-0.329-2.79-6.092-2.79-6.092l-1.694,2.04l-4.231,0.227l-8.759,14.759l1.891,21.21l23.184,6.659L469.534,162.299z"/>
				<path style="opacity:0.9;fill:#FFFFFF;" d="M469.534,162.299h-4.703l-3.496-3.321c0,0-8.826,9.742-8.952,9.413
					c-0.126-0.329-2.79-6.092-2.79-6.092l-1.694,2.04l-4.231,0.227l-8.759,14.759l8.656,51.714l16.419-23.845L469.534,162.299z"/>
				<path style="fill:#407BFF;" d="M449.456,174.595c-1.602,8.17-2.886,19.216-3.041,27.541c0.975,1.996,3.551,11.831,4.722,13.797
					c0.855-2.251,2.592-7.976,3.613-10.242c-0.915-9.784-3.748-26.144-3.223-31.351L449.456,174.595z"/>
				<polygon style="fill:#407BFF;" points="449.726,179.275 448.536,173.227 451.819,169.901 454.222,173.172 				"/>
				<polygon style="opacity:0.3;enable-background:new    ;" points="464.831,162.299 456.477,175.257 451.819,169.901 
					455.837,176.658 457.411,176.658 				"/>
				<polygon style="opacity:0.3;enable-background:new    ;" points="451.819,169.901 448.267,173.499 447.859,165.648 
					447.344,174.588 448.267,174.588 				"/>
			</g>
			<g>
				<path style="fill:#263238;" d="M497.341,265.786l-37.2,3.78l-6.438-15.33l-6.107,13.909l-14.056-4.492l5.803-28.346
					c-2.957-20.505-7.471-35.175-9.291-46.6c-2.336-14.66,3.972-22.065,3.972-22.065c10.787-2.495,11.612-2.355,11.612-2.355
					c-9.754,14.937,5.501,51.646,5.501,51.646c8.749-24.553,18.398-53.634,18.398-53.634c6.607,0.265,13.102,1.804,19.133,4.535
					c0,0-1.771,50.24,3.271,64.466C496.98,245.527,497.341,265.786,497.341,265.786z"/>
				<path style="opacity:0.2;enable-background:new    ;" d="M483.777,187.049c0,0-0.437,14.87,5.085,22.943
					c-0.435-7.503-0.555-15.666-0.555-22.779C486.505,186.83,485.377,186.135,483.777,187.049z"/>
			</g>
			<g>
				<g>
					<path d="M483.434,181.769c-0.771-4.977,1.122-10.16,4.867-13.511c0.36-0.322-0.171-0.852-0.53-0.53
						c-3.959,3.543-5.872,9.001-5.06,14.241C482.785,182.444,483.508,182.242,483.434,181.769L483.434,181.769z"/>
				</g>
			</g>
			<g>
				<g>
					<path d="M472.574,163.367c-1.498,5.017,0.032,10.088,0.261,15.16c0.211,4.67-1.294,10.54-6.571,11.661
						c-0.211,0.045-0.296,0.272-0.262,0.461c0.832,4.624-0.742,9.14-3.34,12.941c-2.313,3.384-5.515,5.669-8.278,8.618
						c-1.154,1.232-2.166,2.618-2.724,4.225c-0.635,1.826-0.654,3.874-0.521,5.781c0.315,4.526,1.472,8.932,1.76,13.471
						c0.374,5.894,0.337,11.806-0.044,17.699c-0.031,0.482,0.719,0.48,0.75,0c0.338-5.238,0.408-10.49,0.154-15.734
						c-0.112-2.31-0.249-4.624-0.594-6.912c-0.355-2.354-0.858-4.684-1.137-7.05c-0.259-2.202-0.392-4.571,0.248-6.722
						c0.586-1.97,1.945-3.578,3.389-4.989c2.834-2.766,5.8-5.152,7.987-8.519c2.516-3.873,3.905-8.394,3.074-13.008
						c-0.087,0.154-0.175,0.308-0.262,0.461c4.456-0.947,6.74-5.434,7.087-9.641c0.49-5.928-2.003-11.845-0.253-17.704
						C473.436,163.102,472.712,162.904,472.574,163.367L472.574,163.367z"/>
				</g>
			</g>
			<g>
				<g>
					<path d="M473.542,243.885c5.349-0.771,10.421-2.566,15.646-3.872c0.22-0.055,0.364-0.354,0.224-0.551
						c-1.281-1.81-2.562-3.621-3.843-5.431c-0.097-0.137-0.253-0.22-0.424-0.172c-4.761,1.326-9.55,2.542-14.367,3.648
						c-0.256,0.059-0.319,0.342-0.224,0.551c0.855,1.885,1.709,3.77,2.564,5.655c0.199,0.439,0.846,0.058,0.648-0.378
						c-0.855-1.885-1.71-3.77-2.564-5.655c-0.075,0.184-0.149,0.367-0.224,0.551c4.816-1.106,9.606-2.323,14.367-3.648
						c-0.141-0.057-0.282-0.115-0.423-0.172c1.281,1.81,2.562,3.621,3.843,5.431c0.075-0.184,0.149-0.367,0.224-0.551
						c-5.225,1.307-10.296,3.102-15.646,3.872C472.867,243.23,473.069,243.953,473.542,243.885z"/>
				</g>
			</g>
			<g>
				<g>
					<path d="M443.049,164.813c-2.521,3.598-5.085,7.266-6.518,11.459c-1.102,3.224-2.039,8.057-0.083,11.145
						c1.095,1.728,2.414,2.838,2.032,5.078c-0.266,1.559-0.791,3.004-0.545,4.602c0.541,3.509,2.489,6.703,4.564,9.512
						c2.527,3.419,5.489,6.475,8.372,9.589c0.329,0.355,0.858-0.176,0.53-0.53c-2.409-2.602-4.876-5.156-7.091-7.929
						c-2.256-2.823-4.444-5.968-5.373-9.508c-0.488-1.86-0.172-3.349,0.199-5.187c0.276-1.366,0.282-2.588-0.457-3.813
						c-0.38-0.629-0.872-1.177-1.298-1.773c-0.654-0.916-0.936-1.846-1.085-2.958c-0.293-2.194-0.057-4.424,0.511-6.555
						c1.26-4.73,4.118-8.797,6.889-12.753C443.974,164.796,443.324,164.42,443.049,164.813L443.049,164.813z"/>
				</g>
			</g>
		</g>
	</g>
</g>
<g id="Character_2">
	<g>
		<g>
			<path style="fill:#263238;" d="M285.403,171.087l-3.914-18.067c-0.224-2.256-2.704-4.001-4.904-3.45
				c-2.199,0.551-3.563,3.259-2.698,5.354c-3.084-0.982-6.885,0.137-8.461,2.964c-1.576,2.827-0.117,7.057,3.024,7.837
				c-1.717,1.885-0.827,5.289,1.434,6.468c2.26,1.179,5.237,0.3,6.888-1.642c-0.469,2.425,1.544,5.026,4.01,5.18
				C283.248,175.883,285.569,173.551,285.403,171.087z"/>
		</g>
		<g>
			<path style="fill:#263238;" d="M295.747,177.109c0,0-16.735-1.205-16.261-14.407c0.311-8.672,1.732-19.584,6.344-23.274
				c15.305-12.243,24.223-4.991,26.574-2.32c1.664,1.89,4.811,6.69,5.63,10.734c4.056,20.047-0.687,19.61-2.603,22.999
				C313.514,174.229,295.747,177.109,295.747,177.109z"/>
			<path style="fill:#A34F50;" d="M308.624,164.057c-1.67,6.144-3.718,17.518,0.287,21.64c0,0-4.281,3.889-15.538,7.985
				c-3.352-0.861-3.624-7.985-3.624-7.985c7.031-1.643,6.413-10.766,5.565-15.566L308.624,164.057z"/>
			<path style="opacity:0.2;enable-background:new    ;" d="M298.622,169.86l8.052,5.216c-0.091,1.143-0.146,2.251-0.039,3.392
				c-2.634-0.111-6.821-2.594-7.57-5.297C298.724,172.102,298.574,170.981,298.622,169.86z"/>
			<path style="fill:#A34F50;" d="M287.849,152.905c1.878,9.979,2.465,14.244,8.192,19.031c8.583,7.161,20.362,3.392,21.51-6.783
				c1.03-9.131-2.218-23.962-12.509-27.262c-6.774-2.453-14.253,1.05-16.706,7.824C287.501,148.018,287.332,150.51,287.849,152.905z
				"/>
			<path style="fill:#A34F50;" d="M287.605,163.508c1.55,1.83,3.686,2.781,5.507,2.922c2.737,0.212,3.289-4.227,1.9-6.698
				c-1.251-2.224-4.115-3.351-6.56-2.403C286.043,158.263,285.832,161.415,287.605,163.508z"/>
			
				<path style="opacity:0.2;fill:none;stroke:#000000;stroke-width:0.5;stroke-linecap:round;stroke-linejoin:round;stroke-miterlimit:10;" d="
				M293.311,161.976c-0.24-0.926-0.858-1.755-1.679-2.255c-0.822-0.499-1.837-0.663-2.761-0.444"/>
			<path style="fill:#263238;" d="M302.533,150.793c0.125,0.029,0.258,0.006,0.365-0.074c1.668-1.256,3.346-0.558,3.366-0.55
				c0.249,0.104,0.521-0.012,0.605-0.269c0.083-0.256-0.054-0.55-0.305-0.659c-0.088-0.037-2.194-0.915-4.263,0.644
				c-0.206,0.155-0.24,0.468-0.075,0.698C302.305,150.694,302.416,150.766,302.533,150.793z"/>
			<path style="fill:#263238;" d="M315.318,147.527c0.076-0.073,0.119-0.176,0.111-0.294c-0.017-0.243-0.246-0.456-0.509-0.476
				c-2.643-0.195-3.749,1.404-3.794,1.474c-0.13,0.193-0.048,0.47,0.183,0.619c0.23,0.149,0.521,0.113,0.652-0.079
				c0.042-0.063,0.921-1.289,3.023-1.134C315.119,147.648,315.238,147.605,315.318,147.527z"/>
			<path style="fill:#842F31;" d="M309.996,154.525c0,0,2.246,3.439,4.426,5.45c0.381,0.351,0.304,0.972-0.137,1.228
				c-1.134,0.657-2.637,0.493-2.637,0.493L309.996,154.525z"/>
			<path style="fill:#263238;" d="M303.538,144.191c-4.208,29.36-8.11,20.508-7.717,31.713c-4.292-6.522-7.591-13.143-8.765-20.97
				c-0.753-3.898-0.145-7.176,0.925-10.999c1.304-3.757,5.291-7.31,9.074-7.636c1.368-0.173,7.992,0.963,9.066,1.829
				C307.216,138.963,304.217,142.965,303.538,144.191z"/>
			<g>
				<path style="fill:#FFFFFF;" d="M311.064,164.057c-1.284-0.138-2.392-0.743-3.732-1.291c-0.533-0.218-1.131,0.138-1.193,0.71
					c-0.118,1.083,0.026,2.658,1.714,3.112C310.586,167.324,311.064,164.057,311.064,164.057z"/>
			</g>
			<g>
				<path style="fill:#263238;" d="M303.331,156.541c0.218,1.025,0.921,1.779,1.571,1.684c0.649-0.094,0.999-1.001,0.78-2.025
					c-0.218-1.024-0.921-1.779-1.57-1.684C303.462,154.61,303.113,155.516,303.331,156.541z"/>
				<path style="fill:#263238;" d="M312.26,154.512c0.213,0.992,0.911,1.721,1.558,1.627c0.647-0.094,0.999-0.974,0.786-1.967
					c-0.213-0.992-0.911-1.721-1.559-1.627C312.399,152.639,312.047,153.52,312.26,154.512z"/>
				<path style="fill:#263238;" d="M303.602,154.547l2.171-0.904C305.774,153.643,304.813,155.518,303.602,154.547z"/>
				<path style="fill:#263238;" d="M312.728,152.69l2.171-0.904C314.899,151.786,313.938,153.661,312.728,152.69z"/>
			</g>
		</g>
		<g>
			<path style="fill:#A34F50;" d="M334.995,436.922l0.046-0.005l1.611-77.768l-5.617-95.768l-34.106,9.109
				c-3.343,18.582,9.717,32.225,9.717,32.225c-0.731,12.722,2.409,29.085,5.414,41.266c2.477,10.083,4.25,12.871,4.872,17.324
				c0.704,5.021-0.826,12.506-0.447,18.948c1.366,18.466,4.308,36.78,8.779,54.747l0.573,3.138l2.707,11.518l7.214,0.298
				l-0.582-11.504L334.995,436.922z"/>
			<polygon style="opacity:0.2;" points="314.176,353.616 315.037,356.287 336.42,355.213 336.224,351.862 			"/>
			<path style="fill:#263238;" d="M346.585,465.758c-1.163-0.879-2.48-1.531-3.884-1.922l0,0c0,0-4.277-3.925-6.767-16.16
				l-5.414-1.191c-1.895-0.384-3.827,0.46-4.832,2.111c-0.152,0.22-0.258,0.469-0.311,0.731c-0.228,1.306-0.368,2.627-0.42,3.952
				c-0.122,4.516,0.027,9.036,0.447,13.534h0.975v-8.499c0-2.896,2.382,0.406,3.126,3.478c0.744,3.072,2.233,6.334,8.567,6.239
				C345.462,467.883,348.521,467.423,346.585,465.758z"/>
			<path style="fill:#A34F50;" d="M334.851,443.305c0,0,1.353,5.59,3.438,11.748c0.892,3.184,2.39,6.167,4.412,8.784
				c0,0-4.696,1.029-6.875-2.084c-2.179-3.113-5.414-13.859-10.164-13.101c0.357-0.819,0.811-1.591,1.354-2.301
				C327.773,445.2,334.851,443.305,334.851,443.305z"/>
			<path style="fill:#A34F50;" d="M279.821,267.279c-8.499,16.864,0.122,33.673,0.122,33.673
				c-4.398,11.964-6.063,28.53-6.672,41.063c-0.487,10.381,0.406,13.548-0.271,18.001c-0.771,5.062-4.372,11.802-5.847,18.082
				c-3.934,17.98-6.331,36.26-7.187,54.644l-0.379,3.472l-0.69,11.815l6.835,2.341l2.72-11.179l0.833-3.44l0.087,0.016
				l23.698-74.073l21.966-93.386L279.821,267.279z"/>
			<polygon style="opacity:0.2;" points="273.234,354.465 273.234,357.589 294.07,357.446 294.771,354.465 			"/>
			<path style="fill:#263238;" d="M272.161,466.692c-0.868-1.168-1.941-2.168-3.167-2.95l0,0c0,0-2.991-4.981-1.84-17.405
				l-4.886-2.707c-1.707-0.905-3.797-0.651-5.238,0.636c-0.199,0.174-0.369,0.38-0.501,0.609c-0.59,1.192-1.102,2.422-1.529,3.681
				c-1.408,4.289-2.556,8.66-3.438,13.088l0.934,0.271l2.477-8.12c0.812-2.775,2.166,1.069,2.017,4.223
				c-0.149,3.153,0.325,6.767,6.415,8.432C270.482,468.425,273.527,468.898,272.161,466.692z"/>
			<path style="fill:#A34F50;" d="M267.315,441.83c0,0-0.284,5.738,0,12.248c-0.044,3.302,0.544,6.582,1.732,9.664
				c0,0-4.805-0.352-5.996-3.952c-1.191-3.6-1.218-14.82-6.009-15.47c0.563-0.676,1.199-1.289,1.895-1.827
				C260.007,441.627,267.315,441.83,267.315,441.83z"/>
			<path style="fill:#407BFF;" d="M338.348,320.996l1.558,30.527c0,0-30.722,2.942-45.135,2.942c-14.414,0-25.724,0-25.724,0
				s-0.35-60.116,5.532-80.846c5.406-19.049,12.022-23.921,12.022-23.921s42.863-0.739,42.863,1.9
				C335.085,265.982,337.871,294.444,338.348,320.996z"/>
			<path style="opacity:0.3;" d="M338.348,320.996l1.558,30.527c0,0-30.722,2.942-45.135,2.942c-14.414,0-25.724,0-25.724,0
				s-0.35-60.116,5.532-80.846c5.406-19.049,12.022-23.921,12.022-23.921s42.863-0.739,42.863,1.9
				C335.085,265.982,337.871,294.444,338.348,320.996z"/>
		</g>
		<path style="opacity:0.2;" d="M271.506,292.218l24.358,2.167c0,0,3.44-38.078,3.731-46.977c0.291-8.899,0-24.717,0-24.717
			l-27.81,66.957L271.506,292.218z"/>
		<path style="fill:#407BFF;" d="M329.878,212.393c0.008-3.378-0.804-6.705-2.38-9.693l-8.604-16.315
			c-2.152-0.271-4.439-0.528-6.564-0.717c-6.638-0.447-14.619-0.381-21.257,0.066c-3.441,0.43-7.062,1.691-10.788,3.436
			c-0.465,0.408-3.705,4.303-2.129,9.409c7.877,26.175,9.325,39.479,8.445,51.119c14.536,1.882,37.825,5.41,42.318,2.784
			C322.976,229.132,329.852,222.345,329.878,212.393z"/>
		<path style="opacity:0.8;fill:#FFFFFF;" d="M329.878,212.393c0.008-3.378-0.804-6.705-2.38-9.693l-8.604-16.315
			c-2.152-0.271-4.439-0.528-6.564-0.717c-6.638-0.447-14.619-0.381-21.257,0.066c-3.441,0.43-7.062,1.691-10.788,3.436
			c-0.465,0.408-3.705,4.303-2.129,9.409c7.877,26.175,9.325,39.479,8.445,51.119c14.536,1.882,37.825,5.41,42.318,2.784
			C322.976,229.132,329.852,222.345,329.878,212.393z"/>
		<path style="fill:#407BFF;" d="M294.158,180.137l-4.566,4.675l-10.416,3.561l-0.456,24.718c2.523,9.506,4.37,24.681,4.435,24.89
			l-18.186,50.953l28.702,3c0,0,7.867-32.6,8.55-54.761C302.712,221.231,298.377,187.007,294.158,180.137z"/>
		<polygon style="opacity:0.2;" points="277.198,254.671 275.818,258.538 299.002,265.514 299.724,261.065 		"/>
		<path style="fill:#407BFF;" d="M309.072,182.128c0,0,14.438,17.423,17.985,29.994c2.332,8.266-3.077,26.648-1.73,38.386
			c1.188,10.354,5.471,23.094,11.418,41.71l3.934-0.558l-10.833-41.205c-1.429-1.392,3.979-32.055,3.679-38.819
			c-0.349-7.875-12.935-25.487-12.935-25.487l-5.263-1.484L309.072,182.128z"/>
		<g>
			
				<rect x="291.104" y="227.05" transform="matrix(0.9679 0.2512 -0.2512 0.9679 73.2884 -69.5454)" style="fill:#263238;" width="35.935" height="50.534"/>
			
				<rect x="307.404" y="224.864" transform="matrix(0.9679 0.2512 -0.2512 0.9679 67.2561 -72.18)" style="fill:#263238;" width="17.945" height="5.013"/>
		</g>
		<g>
			<g>
				<path style="fill:#A34F50;" d="M299.142,259.81l12.167,4.233c0,0,1.475,2.318,2.901,3.7c1.427,1.382,3.326,3.042,6.624,3.157
					c3.298,0.115,1.855-1.856,1.855-1.856c3.32-0.337,2.824-3.167,2.824-3.167c2.908-0.221,2.648-3.266,2.648-3.266
					s0.214-3.475-0.486-4.912c-0.7-1.437-6.13-3.33-6.13-3.33l-6.429,0.928l-11.837-4.962
					C303.194,250.547,299.142,259.81,299.142,259.81z"/>
			</g>
			<path style="fill:#407BFF;" d="M279.838,188.147c0,0-7.507,2.754-9.862,17.39c-2.218,13.782-6.808,37.271-4.922,42.222
				c1.886,4.951,42.907,18.389,45.029,15.796s4.008-10.141,4.008-10.141s-31.018-10.251-30.783-16.83
				c0.236-6.579,3.671-28.195,2.964-30.553C285.564,203.672,279.838,188.147,279.838,188.147z"/>
			<path style="fill:none;stroke:#263238;stroke-width:0.75;stroke-miterlimit:10;" d="M286.263,209.395
				c0,0-3.918,24.916-2.956,27.188c0.963,2.272,9.479,7.805,17.279,11.32c7.452,3.358,13.08,5.516,13.08,5.516"/>
			<g>
				<g>
					<path style="fill:#263238;" d="M280.173,190.246c3.839,2.412,6.38,6.649,6.684,11.175c0.032,0.479,0.782,0.483,0.75,0
						c-0.322-4.798-2.982-9.264-7.055-11.822C280.141,189.341,279.765,189.99,280.173,190.246L280.173,190.246z"/>
				</g>
			</g>
		</g>
		<g>
			<g>
				<path style="fill:#A34F50;" d="M357.366,133.97l-0.787-12.016c0,0,1.458-2.114,2.128-3.845c0.67-1.731,1.408-3.971,0.306-6.852
					c-1.102-2.881-2.274-0.921-2.274-0.921c-1.499-2.736-3.755-1.278-3.755-1.278c-1.249-2.423-3.776-1.09-3.776-1.09
					s-3.069,1.081-4.051,2.207c-0.982,1.126-0.634,6.489-0.634,6.489l3.14,5.197l-0.421,11.992
					C347.455,133.849,357.366,133.97,357.366,133.97z"/>
				<g style="opacity:0.3;">
					<g>
						<path d="M352.516,117.739c-0.761-1.782-2.296-3.143-4.145-3.711c0.055,0.072,0.11,0.145,0.165,0.217
							c0.092-0.994,0.184-1.989,0.276-2.983c-0.055,0.072-0.11,0.145-0.165,0.217c1.1-0.168,2.389-0.454,2.845-1.612
							c0.12-0.304,0.212-0.788-0.041-1.065c-0.177-0.194-0.469-0.219-0.715-0.215c-0.547,0.009-1.102,0.152-1.629,0.285
							c-1.291,0.323-2.56,0.736-3.824,1.149c-0.274,0.09-0.157,0.524,0.12,0.434c1.223-0.4,2.449-0.797,3.696-1.117
							c0.547-0.14,1.139-0.315,1.71-0.301c0.134,0.003,0.219,0.023,0.3,0.059c0.023,0.01,0.033,0.014,0.044,0.09
							c0.045,0.321-0.196,0.839-0.506,1.121c-0.569,0.517-1.387,0.627-2.118,0.738c-0.103,0.016-0.157,0.126-0.165,0.217
							c-0.092,0.994-0.184,1.989-0.276,2.983c-0.009,0.099,0.077,0.19,0.165,0.217c1.747,0.536,3.159,1.826,3.876,3.504
							C352.241,118.231,352.628,118.002,352.516,117.739L352.516,117.739z"/>
					</g>
				</g>
				<g style="opacity:0.3;">
					<g>
						<path d="M359.038,114.102c0.064,0.542-0.254,1.107-0.81,1.231c-0.585,0.131-1.137-0.245-1.3-0.803
							c-0.178-0.609-0.056-1.302-0.072-1.928c-0.018-0.735-0.098-1.467-0.23-2.191c-0.051-0.285-0.485-0.164-0.434,0.12
							c0.165,0.909,0.235,1.83,0.213,2.753c-0.017,0.706-0.057,1.513,0.478,2.059c0.443,0.453,1.174,0.597,1.748,0.323
							c0.578-0.276,0.931-0.932,0.856-1.565C359.454,113.818,359.004,113.815,359.038,114.102L359.038,114.102z"/>
					</g>
				</g>
				<g style="opacity:0.3;">
					<g>
						<path d="M355.983,113.755c-0.363,0.53-0.944,0.976-1.611,0.978c-0.626,0.002-1.223-0.409-1.321-1.046
							c-0.053-0.347,0.006-0.703,0.029-1.05c0.026-0.39,0.029-0.781,0.009-1.171c-0.04-0.765-0.17-1.524-0.379-2.261
							c-0.079-0.278-0.513-0.16-0.434,0.12c0.257,0.906,0.388,1.838,0.375,2.78c-0.01,0.783-0.263,1.688,0.249,2.369
							c0.398,0.529,1.095,0.78,1.742,0.687c0.727-0.105,1.323-0.586,1.729-1.178C356.536,113.742,356.146,113.517,355.983,113.755
							L355.983,113.755z"/>
					</g>
				</g>
				<g style="opacity:0.3;">
					<g>
						<path d="M351.985,112.843c-0.405,0.443-1.046,0.631-1.622,0.448c-0.561-0.178-0.992-0.72-1.05-1.304
							c-0.012-0.122-0.095-0.224-0.225-0.225c-0.112-0.001-0.237,0.104-0.225,0.225c0.077,0.778,0.594,1.465,1.338,1.724
							c0.728,0.253,1.586,0.015,2.102-0.55C352.499,112.948,352.181,112.629,351.985,112.843L351.985,112.843z"/>
					</g>
				</g>
			</g>
			<path style="fill:#407BFF;" d="M315.324,186.09l29.194-29.505l1.412-31.768l11.799,1.515c0,0,2.052,32.696-0.327,36.519
				c-2.379,3.823-27.525,39.788-27.525,39.788L315.324,186.09z"/>
		</g>
	</g>
</g>
<g id="Character_1">
	<g>
		<g>
			<g>
				<g>
					<path style="fill:#FFAA53;" d="M224.777,105.685c-2.722-1.239-4.081,7.433-4.824,8.329c0,0,1.419-5.073,1.97-7.518
						c0.234-3.551-2.445-0.158-2.435,0.539c-1.349-4.828-6.074,10.176-6.899,10.188c-0.884,0.745-1.782-0.724-2.563-2.027
						c-4.461-6.036-1.732,2.706-1.338,5.686c0.156,1.623,1.119,3.015,1.892,3.893l-1.906,5.756l8.886,3.739l2.322-8.044
						l-0.125-0.026c2.887-2.375,4.479-7.592,5.854-11.709c3.273-9.019-1.898-3.684-2.248-0.192
						C223.239,113.902,225.706,106.201,224.777,105.685z"/>
					
						<path style="fill:none;stroke:#FF7800;stroke-width:0.5;stroke-linecap:round;stroke-linejoin:round;stroke-miterlimit:10;" d="
						M219.382,107.308c-0.667,1.818-1.251,3.666-1.75,5.537"/>
					
						<path style="fill:none;stroke:#FF7800;stroke-width:0.5;stroke-linecap:round;stroke-linejoin:round;stroke-miterlimit:10;" d="
						M222.997,116.057c-2.04-1.448-4.512-2.278-7.012-2.354"/>
					
						<path style="fill:none;stroke:#FF7800;stroke-width:0.5;stroke-linecap:round;stroke-linejoin:round;stroke-miterlimit:10;" d="
						M213.35,118.262c1.831,0.968,2.749,3.28,2.082,5.241"/>
				</g>
			</g>
			<g>
				<path style="fill:#407BFF;" d="M150.777,185.568c7.244-10.147,44.235-26.963,44.235-26.963l14.041-31.938l11.187,2.578
					c0,0-9.948,34.234-12.649,39.249c-2.702,5.015-32.613,21.741-32.613,21.741L150.777,185.568z"/>
			</g>
			<path style="opacity:0.5;fill:#FFFFFF;" d="M150.777,185.568c7.244-10.147,44.235-26.963,44.235-26.963l14.041-31.938
				l11.187,2.578c0,0-9.948,34.234-12.649,39.249c-2.702,5.015-32.613,21.741-32.613,21.741L150.777,185.568z"/>
			<path style="opacity:0.1;enable-background:new    ;" d="M190.178,181.331c-3.974,2.451-12.349,7.25-15.2,8.903
				c-3.233-0.253-1.53-3.753-5.028-4.468C169.951,185.767,180.506,179.205,190.178,181.331z"/>
		</g>
		<path style="fill:#407BFF;" d="M170.749,178.7c0,0,15.77,27.905,20.23,78.205c0.106,1.196-0.794,2.252-1.991,2.34l-53.851,3.95
			c-1.272,0.093-2.377-0.867-2.445-2.141c-0.594-11.188,0.266-45.887-9.211-78.665c5.441-1.505,10.974-2.657,16.565-3.446
			c7.038-0.955,14.126-1.506,21.227-1.65C166.158,177.384,165.937,177.855,170.749,178.7z"/>
		<path style="opacity:0.5;fill:#FFFFFF;" d="M170.749,178.7c0,0,15.77,27.905,20.23,78.205c0.106,1.196-0.794,2.252-1.991,2.34
			l-53.851,3.95c-1.272,0.093-2.377-0.867-2.445-2.141c-0.594-11.188,0.266-45.887-9.211-78.665
			c5.441-1.505,10.974-2.657,16.565-3.446c7.038-0.955,14.126-1.506,21.227-1.65C166.158,177.384,165.937,177.855,170.749,178.7z"/>
		<g>
			<g>
				<g>
					<polygon style="fill:#407BFF;" points="130.99,452.402 134.433,424.19 151.989,427.953 141.604,459.527 					"/>
					<polygon style="opacity:0.7;fill:#FFFFFF;" points="130.99,452.402 134.433,424.19 151.989,427.953 141.604,459.527 					"/>
				</g>
				<g>
					<g>
						<g>
							<g>
								<g>
									<g>
										<g>
											<g>
												<g>
													<g>
														<g>
															<path style="fill:#263238;" d="M129.342,466.114l9.425,0.422c0,0,1.461-0.742,2.319-0.642
																c0.855,0.101,3.831,0.647,3.831,0.647l18.851,0.123c-0.153-0.77-0.343-1.455-0.559-2.063
																c-0.263-0.741-0.568-1.369-0.908-1.9c-1.189-1.858-2.471-2.623-4.235-2.731c-2.687-0.164-11.143-5.573-11.143-5.573
																s-2.08-0.869-1.811-3.987c0.093-1.081,0.741-2.086-1.165-2.697c-1.689-0.542-4.403,0.624-4.659,2.302
																c-0.441,0.797-0.221,1.673,0.035,2.553l-5.7-1.21c0,0-4.124-1.99-3.924-0.061c0.114,1.101-1.391,5.59-0.957,9.48
																c0.102,0.907,0.197,1.765,0.28,2.517l0.002,0.001C129.212,464.966,129.342,466.114,129.342,466.114z"/>
														</g>
													</g>
												</g>
											</g>
										</g>
									</g>
									<g>
										<path style="opacity:0.7;fill:#FFFFFF;" d="M163.768,466.664l-18.85-0.123c0,0-2.976-0.546-3.831-0.647
											c-0.858-0.1-2.319,0.642-2.319,0.642l-9.425-0.422c0,0-0.13-1.148-0.316-2.818l34.183,1.306
											C163.425,465.209,163.615,465.894,163.768,466.664z"/>
									</g>
									<g>
										<g>
											<g>
												<g>
													<path style="fill:#FFFFFF;" d="M151.134,456.406c-0.089-0.083-0.226-0.093-0.33-0.027
														c-0.476,0.302-0.875,0.728-1.147,1.263c-0.143,0.282,0.287,0.554,0.432,0.27c0.241-0.475,0.591-0.852,1.007-1.117
														c0.139-0.088,0.162-0.274,0.042-0.385C151.137,456.408,151.135,456.407,151.134,456.406z"/>
												</g>
											</g>
										</g>
									</g>
									<g>
										<g>
											<g>
												<g>
													<path style="fill:#FFFFFF;" d="M149.607,455.544c-0.089-0.083-0.226-0.093-0.33-0.027
														c-0.476,0.302-0.875,0.728-1.147,1.263c-0.143,0.282,0.287,0.554,0.432,0.27c0.242-0.475,0.591-0.852,1.006-1.117
														c0.139-0.088,0.162-0.274,0.043-0.386C149.61,455.546,149.609,455.545,149.607,455.544z"/>
												</g>
											</g>
										</g>
									</g>
									<g>
										<g>
											<g>
												<g>
													<path style="fill:#FFFFFF;" d="M148.033,454.739c-0.089-0.083-0.226-0.093-0.33-0.027
														c-0.476,0.302-0.875,0.728-1.147,1.263c-0.143,0.282,0.287,0.555,0.432,0.27c0.241-0.475,0.591-0.852,1.006-1.116
														c0.139-0.089,0.162-0.274,0.042-0.386C148.035,454.742,148.034,454.74,148.033,454.739z"/>
												</g>
											</g>
										</g>
									</g>
								</g>
							</g>
						</g>
					</g>
				</g>
			</g>
			<g>
				<g>
					<polygon style="fill:#407BFF;" points="218.721,455.521 216.763,427.161 234.702,427.405 230.484,460.427 					"/>
					<polygon style="opacity:0.7;fill:#FFFFFF;" points="218.721,455.521 216.763,427.161 234.702,427.405 230.484,460.427 					"/>
				</g>
				<g>
					<g>
						<g>
							<g>
								<g>
									<g>
										<g>
											<g>
												<g>
													<g>
														<g>
															<path style="fill:#263238;" d="M217.127,468.086l9.431,0.254c0,0,1.448-0.767,2.308-0.683
																c0.857,0.086,3.842,0.579,3.842,0.579l18.85-0.213c-0.166-0.767-0.368-1.448-0.594-2.053
																c-0.276-0.736-0.592-1.358-0.94-1.884c-1.221-1.836-2.516-2.578-4.281-2.655c-2.689-0.116-11.237-5.373-11.237-5.373
																s-2.094-0.832-1.879-3.954c0.074-1.082,0.705-2.099-1.211-2.676c-1.699-0.512-4.392,0.702-4.618,2.384
																c-0.428,0.805-0.192,1.677,0.079,2.552l-5.72-1.108c0,0-4.157-1.916-3.924,0.009
																c0.133,1.099-1.295,5.614-0.794,9.495c0.118,0.905,0.227,1.761,0.324,2.512l0.002,0
																C216.978,466.94,217.127,468.086,217.127,468.086z"/>
														</g>
													</g>
												</g>
											</g>
										</g>
									</g>
									<g>
										<path style="opacity:0.7;fill:#FFFFFF;" d="M251.557,468.022l-18.85,0.213c0,0-2.985-0.493-3.842-0.578
											c-0.86-0.085-2.308,0.683-2.308,0.683l-9.431-0.254c0,0-0.149-1.145-0.364-2.812l34.2,0.696
											C251.19,466.574,251.391,467.255,251.557,468.022z"/>
									</g>
									<g>
										<g>
											<g>
												<g>
													<path style="fill:#FFFFFF;" d="M238.749,457.991c-0.09-0.082-0.228-0.089-0.33-0.021
														c-0.471,0.31-0.863,0.743-1.125,1.283c-0.138,0.284,0.297,0.549,0.436,0.262c0.233-0.48,0.576-0.863,0.987-1.135
														c0.137-0.091,0.157-0.277,0.036-0.386C238.752,457.993,238.75,457.992,238.749,457.991z"/>
												</g>
											</g>
										</g>
									</g>
									<g>
										<g>
											<g>
												<g>
													<path style="fill:#FFFFFF;" d="M237.208,457.156c-0.09-0.082-0.228-0.089-0.33-0.021
														c-0.47,0.31-0.863,0.743-1.125,1.283c-0.138,0.284,0.297,0.549,0.436,0.262c0.233-0.479,0.576-0.862,0.987-1.134
														c0.137-0.091,0.157-0.277,0.036-0.386C237.211,457.159,237.209,457.157,237.208,457.156z"/>
												</g>
											</g>
										</g>
									</g>
									<g>
										<g>
											<g>
												<g>
													<path style="fill:#FFFFFF;" d="M235.62,456.38c-0.09-0.082-0.228-0.089-0.33-0.021
														c-0.471,0.31-0.863,0.743-1.125,1.283c-0.138,0.284,0.297,0.549,0.437,0.262c0.233-0.479,0.576-0.862,0.987-1.134
														c0.137-0.091,0.157-0.277,0.036-0.387C235.622,456.382,235.621,456.381,235.62,456.38z"/>
												</g>
											</g>
										</g>
									</g>
								</g>
							</g>
						</g>
					</g>
				</g>
			</g>
			<path style="fill:#263238;" d="M125.533,452.245l21.395,2.598c0,0,19.713-68.561,22.52-86.16c2.807-17.6,1.425-60.25,1.425-60.25
				l0,0l-0.004,0.072c0.64,0.995,6.269,10.158,12.739,20.777c8.455,13.927,18.372,30.375,20.416,34.382
				c6.046,11.797,9.475,92.605,9.475,92.605l23.19,0.164c0,0,1.384-70.367-5.508-95.851c-6.892-25.485-41.699-94.408-41.699-94.408
				l-0.397-6.85l-54.09,3.961c0,0,0.139,8.428-0.227,15.769c-1.362,27.541,5.845,65.32,6.091,75.363
				C141.358,373.59,125.533,452.245,125.533,452.245z"/>
		</g>
		<path style="opacity:0.2;enable-background:new    ;" d="M170.872,308.461L170.872,308.461l-0.004,0.072
			c0.639,0.995,6.269,10.158,12.739,20.777c2.077-11.233-3.361-26.847-12.739-33.12L170.872,308.461z"/>
		<g>
			<path style="fill:#FFAA53;" d="M139.794,154.095c2.03,7.091,4.649,20.23,0.423,25.67c6.743,2.143,11.582,3.572,17.579,8.191
				c1.507-4.704,1.747-11.099,1.747-11.099c-5.861-0.762-6.495-6.725-5.741-12.493L139.794,154.095z"/>
			<path style="opacity:0.2;enable-background:new    ;" d="M145.978,158.292l8.917,6.089c-0.195,1.352-0.275,2.717-0.24,4.082
				c-3.086-0.089-7.768-3.023-8.46-6.232C145.883,160.942,145.81,159.607,145.978,158.292z"/>
			<path style="fill:#263238;" d="M159.772,130.598c2.566,2.175,3.007,7.32,3.511,10.486c0.472,2.965,1.269,6.814-2.947,3.057
				C156.12,140.385,150.616,123.83,159.772,130.598z"/>
			<path style="opacity:0.2;enable-background:new    ;" d="M142.612,165.299c0,0,3.785,6.514,11.226,5.786
				c-0.823-2.941-0.288-5.555,0.085-7.186c-0.574-0.173,0.095-1.044,0.095-1.044L142.612,165.299z"/>
			<path style="fill:#FFAA53;" d="M142.931,165.932c5.297,3.472,11.073,4.022,15.707,1.106c2.981-1.87,5.322-4.884,6.294-8.593
				c0.133-0.485,0.234-0.989,0.318-1.503c1.411-9.408-1.301-24.516-11.699-27.73c-7.399-2.345-15.315,1.755-17.657,9.167
				c-0.68,2.103-0.834,4.342-0.482,6.531C136.894,155.093,136.743,161.876,142.931,165.932z"/>
			<path style="fill:#263238;" d="M151.2,147.019c0.017,1.073,0.729,1.896,1.444,1.833c0.715-0.063,1.194-0.99,1.108-2.063
				c-0.085-1.072-0.746-1.896-1.444-1.834C151.611,145.019,151.114,145.93,151.2,147.019z"/>
			<path style="fill:#263238;" d="M160.596,146.374c0.017,1.073,0.746,1.896,1.444,1.834c0.698-0.062,1.194-0.99,1.108-2.063
				c-0.085-1.072-0.747-1.896-1.444-1.834C161.006,144.374,160.511,145.353,160.596,146.374z"/>
			<path style="fill:#FF7800;" d="M157.692,146.289c1.214,2.467,2.763,4.755,4.604,6.798c-1.089,0.93-2.534,1.331-3.947,1.095
				L157.692,146.289z"/>
			<path style="fill:#263238;" d="M163.806,141.286c-0.152,0.103-0.348,0.116-0.513,0.036c-1.101-0.595-2.417-0.635-3.552-0.109
				c-0.234,0.135-0.533,0.055-0.668-0.179c-0.135-0.234-0.055-0.533,0.179-0.668c0.001-0.001,0.001-0.001,0.002-0.001
				c1.418-0.702,3.088-0.672,4.48,0.079c0.244,0.116,0.348,0.407,0.233,0.651c-0.002,0.004-0.003,0.007-0.005,0.01
				C163.919,141.174,163.867,141.235,163.806,141.286z"/>
			<path style="fill:#263238;" d="M149.026,142.821c-0.099,0.006-0.197-0.02-0.281-0.073c-0.195-0.187-0.202-0.496-0.016-0.691
				c0.003-0.003,0.005-0.005,0.008-0.008c1.088-1.156,2.67-1.709,4.242-1.484c0.264,0.054,0.435,0.312,0.381,0.577l0,0.001
				c-0.06,0.261-0.315,0.429-0.578,0.382l0,0c-1.245-0.142-2.484,0.314-3.341,1.228C149.319,142.834,149.168,142.86,149.026,142.821
				z"/>
			<g>
				<path style="fill:#263238;" d="M154.668,155.886c-1.98-0.422-3.847-1.261-5.478-2.46c-0.15,0.315-0.252,0.65-0.304,0.994
					c-0.11,0.61-0.069,1.239,0.121,1.829c0.388,1.207,1.521,2.476,4.449,3.121c0.214,0.059,0.431,0.106,0.65,0.142
					c0.455-1.167,0.994-2.298,1.613-3.387C155.72,156.125,155.32,156.053,154.668,155.886z"/>
				<path style="fill:#FFFFFF;" d="M149.239,153.423c-0.15,0.315-0.252,0.65-0.304,0.994c0.672,1.028,2.526,1.83,5.281,2.461
					l0.501-0.995C152.737,155.461,150.87,154.622,149.239,153.423z"/>
				<path style="fill:#FF222A;" d="M152.119,157.609c-0.949-0.633-2.002-1.093-3.111-1.36c0.388,1.207,1.521,2.476,4.449,3.121
					C153.205,158.658,152.738,158.042,152.119,157.609z"/>
			</g>
			<path style="fill:#263238;" d="M156.77,124.083c-7.251-1.818-24.702,2.613-26.457,6.174c-0.858,1.503-0.974,3.301-0.348,4.887
				c-3.822,3.718,1.037,19.088,9.248,18.051c5.232-0.651,4.301-2.684,3.957-3.153c-1.566-2.024-0.352-5.323,0.903-9.577
				c0.495-1.677-0.562-3.293-2.365-4.506c2.399-2.967,6.639-3.911,10.124-2.04c0,0,5.894,3.083,8.634-3.821
				c0.107-0.303,0.182-0.616,0.223-0.934C161.01,126.678,159.255,124.404,156.77,124.083z"/>
			<g>
				<path style="fill:#FFAA53;" d="M131.659,153.701c1.337,2.221,3.501,3.822,6.016,4.45c3.337,0.809,4.886-2.208,3.867-5.3
					c-0.931-2.739-3.781-6.555-7.087-5.954C131.15,147.497,130.052,150.953,131.659,153.701z"/>
				<path style="opacity:0.1;fill:none;stroke:#000000;stroke-width:0.5;stroke-miterlimit:10;" d="M139.396,153.732
					c-0.428-1.7-1.643-3.185-3.225-3.941c-0.673-0.321-1.565-0.479-2.094,0.047"/>
			</g>
		</g>
		<g>
			<path style="fill:#407BFF;" d="M138.282,180.354c0,0,3.971-7.561,4.495-7.525c0.524,0.036,11.611,5.073,11.611,5.073l0.785-4.574
				l5.804,4.459l-1.958,12.379L138.282,180.354z"/>
			<path style="opacity:0.5;fill:#FFFFFF;" d="M138.282,180.354c0,0,3.971-7.561,4.495-7.525c0.524,0.036,11.611,5.073,11.611,5.073
				l0.785-4.574l5.804,4.459l-1.958,12.379L138.282,180.354z"/>
			<path style="opacity:0.1;enable-background:new    ;" d="M138.948,179.103c0,0,11.925,7.207,11.988,7.237
				c0.063,0.03,2.487-5.535,2.487-5.535l-1.472,7.245L138.948,179.103z"/>
		</g>
		<path style="fill:#407BFF;" d="M153.506,180.884l-1.052,3.749l2.112,3.305c2.129,0.158,9.944,55.101,9.136,73.807l11.13,6.976
			l3.323-7.698c-2.322-17.366-13.446-66.528-20.781-73.819l0.988-4.767l0,0l-2.92-2.135L153.506,180.884z"/>
		<g>
			<g>
				<g>
					<path style="fill:#FFAA53;" d="M72.957,104.897c0.336-0.077-1.239-0.537-0.446-2.101c0.441-0.869,0.662-1.717,3.843-0.139
						c3.182,1.577,7.049,4.043,8.201,5.4c1.152,1.357-1.264,7.458-1.065,8.773c0.199,1.315,3.483,9.346,3.483,9.346l-7.827,2.084
						l-3.72-9.6c0,0-4.895-3.269-5.24-4.535c-0.346-1.266,0.733-3.155,0.733-3.155s-2.024-1.028,0.615-3.255
						C71.535,107.715,69.937,105.59,72.957,104.897z"/>
					<g>
						<g>
							<path style="fill:#FF7800;" d="M83.575,108.868c-0.867-0.691-1.904-1.48-3.081-1.376c-1.159,0.102-1.96,1.032-2.582,1.926
								c-0.369,0.531-0.696,1.091-0.977,1.674c-0.246,0.509-0.586,1.125-0.642,1.694c-0.111,1.134,1.606,0.85,2.229,0.604
								c1.039-0.41,1.86-1.306,2.094-2.407c-0.137,0.018-0.274,0.036-0.411,0.054c0.533,0.8,1.267,1.425,2.152,1.805
								c0.263,0.113,0.493-0.275,0.227-0.389c-0.814-0.35-1.498-0.906-1.991-1.644c-0.1-0.15-0.368-0.147-0.411,0.054
								c-0.218,1.024-1.006,1.862-2.004,2.173c-0.253,0.079-0.514,0.124-0.78,0.126c-0.131,0.001-0.276,0.003-0.403-0.032
								c-0.255-0.072-0.27-0.221-0.218-0.472c0.125-0.605,0.478-1.23,0.766-1.771c0.533-1,1.237-2.235,2.295-2.754
								c1.235-0.605,2.483,0.309,3.418,1.054C83.481,109.365,83.802,109.049,83.575,108.868L83.575,108.868z"/>
						</g>
					</g>
					<g>
						<g>
							<path style="fill:#FF7800;" d="M72.53,105.145c1.059,0.346,2.038,0.955,2.902,1.65c0.456,0.367,0.887,0.766,1.284,1.197
								c0.395,0.429,1.007,1.008,0.97,1.636c-0.017,0.289,0.433,0.288,0.45,0c0.04-0.667-0.463-1.223-0.871-1.696
								c-0.439-0.508-0.927-0.975-1.447-1.4c-0.944-0.772-2.004-1.441-3.169-1.821C72.373,104.621,72.255,105.055,72.53,105.145
								L72.53,105.145z"/>
						</g>
					</g>
					<g>
						<g>
							<path style="fill:#FF7800;" d="M70.559,114.579c1.005,0.401,2.009,0.802,3.013,1.203c0.785,0.313,1.76,0.891,2.614,0.504
								c0.753-0.341,0.774-1.224,0.315-1.821c-0.263-0.341-0.529-0.611-0.907-0.821c-0.447-0.248-0.886-0.508-1.32-0.778
								c-0.981-0.609-1.944-1.247-2.958-1.801c-0.254-0.139-0.482,0.249-0.227,0.389c0.983,0.537,1.917,1.152,2.867,1.744
								c0.464,0.289,0.934,0.568,1.411,0.835c0.395,0.22,0.82,0.597,0.964,1.043c0.174,0.537-0.259,0.894-0.767,0.891
								c-0.532-0.004-1.067-0.297-1.549-0.49c-1.112-0.444-2.224-0.888-3.336-1.332C70.41,114.038,70.293,114.473,70.559,114.579
								L70.559,114.579z"/>
						</g>
					</g>
					<g>
						<g>
							<path style="fill:#FF7800;" d="M77.093,111.439c-0.858-0.741-1.738-1.458-2.662-2.115c-0.915-0.65-1.88-1.258-2.936-1.651
								c-0.272-0.101-0.389,0.334-0.12,0.434c1.017,0.379,1.948,0.98,2.829,1.605c0.893,0.635,1.742,1.328,2.571,2.044
								C76.993,111.945,77.313,111.628,77.093,111.439L77.093,111.439z"/>
						</g>
					</g>
				</g>
			</g>
			<g>
				<path style="fill:#407BFF;" d="M134.594,201.21c-0.614,0.289-4.232,5.696-6.662,3.223c-9.14-9.3-33.901-40.11-38.436-45.661
					c-2.874-3.518-15.404-35.876-15.404-35.876l11.941-3.656c0,0,15.113,31.252,16.825,32.849
					c6.383,5.954,25.655,20.312,31.225,25.834c5.269,5.223,5.973,14.637,3.479,18.967C136.813,198.188,135.891,200.6,134.594,201.21
					z"/>
			</g>
			<g style="opacity:0.5;">
				<path style="fill:#FFFFFF;" d="M134.594,201.21c-0.614,0.289-4.232,5.696-6.662,3.223c-9.14-9.3-33.901-40.11-38.436-45.661
					c-2.874-3.518-15.404-35.876-15.404-35.876l11.941-3.656c0,0,15.113,31.252,16.825,32.849
					c6.383,5.954,25.655,20.312,31.225,25.834c5.269,5.223,5.973,14.637,3.479,18.967C136.813,198.188,135.891,200.6,134.594,201.21
					z"/>
			</g>
		</g>
		<g>
			<g>
				<path style="fill:#263238;" d="M135.029,179.64c2.054,1.92,3.872,4.075,5.413,6.427c0.263,0.402,0.913,0.027,0.648-0.378
					c-1.575-2.404-3.431-4.616-5.53-6.579C135.207,178.78,134.676,179.31,135.029,179.64L135.029,179.64z"/>
			</g>
		</g>
	</g>
</g>
<g id="Balloons">
	<g>
		<g>
			<path style="fill:#407BFF;" d="M259.321,95.541c7.264-7.568,9.692-17.235,6.016-27.06c-3.676-9.825-12.092-18.208-22.54-19.149
				c-5.345-0.481-10.969,0.682-15.224,3.953c-6.048,4.651-8.466,13.069-7.073,20.57c1.394,7.502,4.759,13.56,10.616,18.449
				c5.802,4.843,15,9.01,25.15,5.209c0,0,1.039,6.443,2.763,6.138c1.724-0.305,1.134-4.009,1.134-4.009s5.416,1.228,4.411-0.618
				C263.089,96.295,259.321,95.541,259.321,95.541z"/>
		</g>
		<g style="opacity:0.3;">
			<path style="fill:#FFFFFF;" d="M233.558,85.802c-0.951,1.077-1.903,2.155-2.854,3.232c-3.735-3.078-6.513-7.302-7.86-11.95
				c-1.348-4.649-1.258-9.703,0.252-14.301c0,0,0.764,7.969,3.41,13.249C229.372,81.755,233.558,85.802,233.558,85.802z"/>
		</g>
	</g>
	<g>
		<g>
			<path style="fill:#407BFF;" d="M631.111,124.919c9.631,4.159,19.536,3.053,27.456-3.827c7.919-6.88,12.83-17.696,10.058-27.813
				c-1.418-5.176-4.475-10.038-9.028-12.88c-6.472-4.04-15.205-3.361-21.745,0.567c-6.541,3.929-11.04,9.2-13.572,16.398
				c-2.508,7.13-3.196,17.204,3.916,25.384c0,0-5.673,3.227-4.784,4.735c0.889,1.508,4.152-0.34,4.152-0.34s0.743,5.504,2.122,3.916
				C631.723,128.713,631.111,124.919,631.111,124.919z"/>
		</g>
		<g style="opacity:0.3;">
			<path style="fill:#FFFFFF;" d="M631.226,97.377c-1.342-0.514-2.684-1.029-4.026-1.543c1.578-4.576,4.563-8.655,8.447-11.543
				c3.884-2.888,8.65-4.572,13.487-4.765c0,0-7.198,3.503-11.22,7.828C633.554,92.04,631.226,97.377,631.226,97.377z"/>
		</g>
	</g>
	<g>
		<g>
			<path style="fill:#407BFF;" d="M403.615,292.235c5.131-9.15,5.052-19.117-0.974-27.704c-6.026-8.587-16.278-14.587-26.627-12.874
				c-5.295,0.876-10.446,3.416-13.743,7.651c-4.686,6.021-4.912,14.777-1.679,21.687c3.233,6.911,8.012,11.93,14.91,15.191
				c6.833,3.23,16.782,4.954,25.652-1.276c0,0,2.624,5.975,4.216,5.247c1.592-0.728,0.09-4.165,0.09-4.165s5.551-0.172,4.114-1.706
				C407.452,292.018,403.615,292.235,403.615,292.235z"/>
		</g>
		<g style="opacity:0.5;">
			<path style="fill:#FFFFFF;" d="M403.615,292.235c5.131-9.15,5.052-19.117-0.974-27.704c-6.026-8.587-16.278-14.587-26.627-12.874
				c-5.295,0.876-10.446,3.416-13.743,7.651c-4.686,6.021-4.912,14.777-1.679,21.687c3.233,6.911,8.012,11.93,14.91,15.191
				c6.833,3.23,16.782,4.954,25.652-1.276c0,0,2.624,5.975,4.216,5.247c1.592-0.728,0.09-4.165,0.09-4.165s5.551-0.172,4.114-1.706
				C407.452,292.018,403.615,292.235,403.615,292.235z"/>
		</g>
		<g style="opacity:0.3;">
			<path style="fill:#FFFFFF;" d="M376.232,289.28c-0.65,1.282-1.3,2.564-1.951,3.845c-4.388-2.041-8.138-5.431-10.61-9.593
				c-2.472-4.161-3.655-9.076-3.349-13.906c0,0,2.742,7.521,6.629,11.968C371.164,286.413,376.232,289.28,376.232,289.28z"/>
		</g>
	</g>
	<g>
		<g>
			<path style="fill:#407BFF;" d="M71.226,336.946c9.535,4.374,19.463,3.491,27.535-3.209c8.072-6.7,13.224-17.403,10.68-27.58
				c-1.301-5.206-4.248-10.136-8.736-13.08c-6.38-4.185-15.125-3.702-21.752,0.079c-6.627,3.781-11.244,8.95-13.937,16.089
				c-2.668,7.072-3.582,17.128,3.344,25.465c0,0-5.744,3.099-4.889,4.626c0.855,1.527,4.159-0.246,4.159-0.246
				s0.62,5.519,2.033,3.963C71.752,340.753,71.226,336.946,71.226,336.946z"/>
		</g>
		<g style="opacity:0.3;">
			<path style="fill:#FFFFFF;" d="M71.96,309.414c-1.33-0.544-2.66-1.089-3.991-1.633c1.68-4.539,4.756-8.55,8.704-11.35
				c3.948-2.8,8.751-4.377,13.59-4.461c0,0-7.275,3.34-11.393,7.574C74.407,304.131,71.96,309.414,71.96,309.414z"/>
		</g>
	</g>
</g>
<g id="Confetti">
	<g>
		<path style="fill:#407BFF;" d="M226.414,155.064l3.186-1.199c0,0-0.828,3.379,3.716,4.352l-2.89,2.081
			C230.426,160.298,226.532,158.844,226.414,155.064z"/>
		<path style="fill:#407BFF;" d="M315.686,112.823l0.983,3.259c0,0-3.316-1.052-4.591,3.417l-1.883-3.023
			C310.195,116.477,311.906,112.688,315.686,112.823z"/>
		<path style="fill:#407BFF;" d="M58.542,197.869l0.277-2.338c0,0,1.812,1.583,3.854-0.898l0.359,2.437
			C63.032,197.07,60.901,198.999,58.542,197.869z"/>
		<path style="fill:#407BFF;" d="M145.801,98.817l0.277-2.338c0,0,1.812,1.583,3.854-0.898l0.359,2.437
			C150.291,98.018,148.159,99.947,145.801,98.817z"/>
		<path style="fill:#407BFF;" d="M314.073,62.812l0.277-2.338c0,0,1.811,1.583,3.854-0.898l0.359,2.437
			C318.563,62.013,316.432,63.942,314.073,62.812z"/>
		<g>
			<path style="fill:#407BFF;" d="M143.884,48.714l0.401-3.381c0,0,2.62,2.289,5.574-1.299l0.519,3.524
				C150.378,47.558,147.296,50.348,143.884,48.714z"/>
			<path style="opacity:0.7;fill:#FFFFFF;" d="M143.884,48.714l0.401-3.381c0,0,2.62,2.289,5.574-1.299l0.519,3.524
				C150.378,47.558,147.296,50.348,143.884,48.714z"/>
		</g>
		<g>
			<path style="fill:#407BFF;" d="M522.441,358.512l3.01-1.591c0,0-0.396,3.457,4.235,3.85l-2.605,2.429
				C527.081,363.199,523.034,362.247,522.441,358.512z"/>
			<path style="opacity:0.7;fill:#FFFFFF;" d="M522.441,358.512l3.01-1.591c0,0-0.396,3.457,4.235,3.85l-2.605,2.429
				C527.081,363.199,523.034,362.247,522.441,358.512z"/>
		</g>
		<g>
			<path style="fill:#407BFF;" d="M445.204,102.963l3.01-1.591c0,0-0.396,3.457,4.235,3.85l-2.605,2.429
				C449.844,107.651,445.797,106.699,445.204,102.963z"/>
			<path style="opacity:0.7;fill:#FFFFFF;" d="M445.204,102.963l3.01-1.591c0,0-0.396,3.457,4.235,3.85l-2.605,2.429
				C449.844,107.651,445.797,106.699,445.204,102.963z"/>
		</g>
		<path style="fill:#407BFF;" d="M528.317,166.038l0.984,3.259c0,0-3.316-1.052-4.591,3.417l-1.883-3.023
			C522.826,169.691,524.537,165.902,528.317,166.038z"/>
		<path style="fill:#407BFF;" d="M689.955,366.409l0.984,3.259c0,0-3.316-1.052-4.591,3.417l-1.883-3.023
			C684.464,370.062,686.175,366.274,689.955,366.409z"/>
		<path style="fill:#407BFF;" d="M357.777,216.546l-0.302-3.391c0,0,3.034,1.702,5.188-2.416l1.232,3.342
			C363.895,214.081,361.451,217.444,357.777,216.546z"/>
		<path style="fill:#407BFF;" d="M579.251,100.902l-0.302-3.391c0,0,3.034,1.702,5.188-2.416l1.231,3.342
			C585.368,98.437,582.925,101.8,579.251,100.902z"/>
		<path style="fill:#407BFF;" d="M92.914,378.249l-0.302-3.391c0,0,3.034,1.702,5.188-2.416l1.232,3.342
			C99.031,375.784,96.588,379.147,92.914,378.249z"/>
		<path style="fill:#407BFF;" d="M214.109,250.077l-0.302-3.391c0,0,3.034,1.702,5.188-2.416l1.232,3.342
			C220.227,247.612,217.784,250.975,214.109,250.077z"/>
		<path style="fill:#407BFF;" d="M246.374,359.114l-0.302-3.391c0,0,3.034,1.702,5.188-2.416l1.232,3.342
			C252.492,356.65,250.049,360.013,246.374,359.114z"/>
		<path style="fill:#407BFF;" d="M698.821,97.88l0.277-2.338c0,0,1.812,1.583,3.854-0.898l0.359,2.437
			C703.311,97.081,701.18,99.01,698.821,97.88z"/>
		<path style="fill:#407BFF;" d="M552.013,55.073l0.277-2.338c0,0,1.812,1.583,3.854-0.898l0.359,2.437
			C556.503,54.274,554.372,56.202,552.013,55.073z"/>
		<g>
			<path style="fill:#407BFF;" d="M665.783,165.148l3.01-1.591c0,0-0.396,3.457,4.235,3.85l-2.605,2.429
				C670.422,169.836,666.376,168.884,665.783,165.148z"/>
			<path style="opacity:0.7;fill:#FFFFFF;" d="M665.783,165.148l3.01-1.591c0,0-0.396,3.457,4.235,3.85l-2.605,2.429
				C670.422,169.836,666.376,168.884,665.783,165.148z"/>
		</g>
		<g>
			<path style="fill:#407BFF;" d="M538.631,229.017l3.01-1.591c0,0-0.396,3.457,4.235,3.85l-2.605,2.429
				C543.271,233.704,539.224,232.752,538.631,229.017z"/>
			<path style="opacity:0.7;fill:#FFFFFF;" d="M538.631,229.017l3.01-1.591c0,0-0.396,3.457,4.235,3.85l-2.605,2.429
				C543.271,233.704,539.224,232.752,538.631,229.017z"/>
		</g>
		<g>
			<path style="fill:#407BFF;" d="M626.481,290.386l3.01-1.591c0,0-0.396,3.456,4.235,3.85l-2.605,2.429
				C631.12,295.073,627.074,294.121,626.481,290.386z"/>
			<path style="opacity:0.7;fill:#FFFFFF;" d="M626.481,290.386l3.01-1.591c0,0-0.396,3.456,4.235,3.85l-2.605,2.429
				C631.12,295.073,627.074,294.121,626.481,290.386z"/>
		</g>
		<g>
			<path style="fill:#407BFF;" d="M322.977,292.229l3.01-1.591c0,0-0.396,3.457,4.235,3.85l-2.605,2.429
				C327.617,296.917,323.57,295.965,322.977,292.229z"/>
			<path style="opacity:0.7;fill:#FFFFFF;" d="M322.977,292.229l3.01-1.591c0,0-0.396,3.457,4.235,3.85l-2.605,2.429
				C327.617,296.917,323.57,295.965,322.977,292.229z"/>
		</g>
		<g>
			<path style="fill:#407BFF;" d="M380.774,357.088l0.971-3.263c0,0,2.191,2.702,5.714-0.33l-0.089,3.561
				C387.369,357.056,383.857,359.28,380.774,357.088z"/>
			<path style="opacity:0.7;fill:#FFFFFF;" d="M380.774,357.088l0.971-3.263c0,0,2.191,2.702,5.714-0.33l-0.089,3.561
				C387.369,357.056,383.857,359.28,380.774,357.088z"/>
		</g>
		<g>
			<path style="fill:#407BFF;" d="M396.291,40.848l0.971-3.263c0,0,2.191,2.702,5.714-0.33l-0.089,3.561
				C402.886,40.816,399.374,43.039,396.291,40.848z"/>
			<path style="opacity:0.7;fill:#FFFFFF;" d="M396.291,40.848l0.971-3.263c0,0,2.191,2.702,5.714-0.33l-0.089,3.561
				C402.886,40.816,399.374,43.039,396.291,40.848z"/>
		</g>
	</g>
</g>
</svg>
